<svg xmlns="http://www.w3.org/2000/svg" width="670" height="670" viewBox="0 0 670 670" version="1.1"><path d="M 311 27.550 C 296.870 28.918, 294.122 29.355, 277 32.952 C 261.454 36.218, 255.789 37.858, 239.500 43.809 C 215.095 52.724, 192.920 64.544, 169.500 81.122 C 161.951 86.466, 146.611 98.754, 142 103.150 C 140.075 104.986, 137.130 107.616, 135.456 108.994 C 127.911 115.205, 103.281 143.570, 96.445 153.922 C 95.146 155.890, 92.264 160.133, 90.041 163.351 C 87.819 166.569, 86 169.389, 86 169.618 C 86 169.848, 83.819 173.551, 81.154 177.849 C 76.145 185.925, 63.197 213.325, 59.817 223 C 55.759 234.619, 52.843 243.763, 51.047 250.500 C 50.021 254.350, 48.916 258.175, 48.592 259 C 48.268 259.825, 47.326 265, 46.498 270.500 C 45.670 276, 44.279 285.225, 43.407 291 C 41.080 306.413, 41.944 353.119, 44.831 368 C 48.893 388.937, 51.980 400.800, 57.438 416.446 C 60.497 425.217, 63 432.739, 63 433.161 C 63 433.584, 58.388 434.058, 52.750 434.215 L 42.500 434.500 42.244 514.444 C 42.103 558.413, 42.328 594.716, 42.744 595.117 C 43.160 595.518, 46.875 594.694, 51 593.286 C 55.125 591.879, 61.425 589.937, 65 588.970 C 68.575 588.004, 77.125 585.541, 84 583.496 C 90.875 581.452, 99.425 578.972, 103 577.987 C 117.729 573.925, 125.659 571.705, 128.399 570.877 C 133.643 569.291, 134.906 569.913, 144.378 578.750 C 173.308 605.739, 205.882 623.698, 254 639.187 C 299.660 653.886, 357.524 657.925, 393 648.891 C 412.189 644.004, 419.002 641.898, 439 634.672 C 449.786 630.775, 474.525 618.965, 483.500 613.430 C 486.800 611.395, 490.401 609.228, 491.502 608.615 C 494.091 607.174, 507.445 597.732, 514.783 592.154 C 517.927 589.764, 524.665 583.801, 529.755 578.904 C 535.799 573.089, 539.788 570, 541.255 570.001 C 542.490 570.001, 545.890 570.909, 548.811 572.020 C 551.732 573.130, 558.290 575.121, 563.384 576.445 C 577.102 580.009, 595.013 585.075, 599 586.518 C 600.925 587.215, 609.700 589.819, 618.500 592.304 C 629.654 595.454, 634.871 596.516, 635.724 595.810 C 636.680 595.020, 636.817 577.451, 636.352 515.649 C 636.025 472.117, 635.370 436.014, 634.897 435.420 C 634.406 434.803, 629.650 434.243, 623.794 434.112 C 618.160 433.987, 613.424 433.757, 613.270 433.603 C 613.116 433.449, 614.167 430.213, 615.606 426.411 C 624.177 403.773, 626.801 394.050, 631.373 368 C 637.721 331.828, 635.175 281.085, 625.301 247 C 620.412 230.122, 611.734 207.405, 605.533 195.253 C 591.908 168.554, 577.093 146.597, 560.069 127.873 C 548.889 115.577, 528.733 96.431, 524.861 94.428 C 523.354 93.649, 521.532 92.190, 520.811 91.187 C 520.090 90.183, 514.550 85.909, 508.500 81.689 C 502.450 77.469, 497.050 73.653, 496.500 73.209 C 493.650 70.907, 477.107 61.732, 467 56.846 C 449.065 48.177, 442.851 45.664, 429 41.479 C 426.525 40.731, 422.025 39.237, 419 38.159 C 410.870 35.262, 394.955 31.632, 383 29.949 C 353.383 25.778, 335.461 25.181, 311 27.550 M 320.500 51.176 C 224.076 57.102, 129.210 123.755, 89.111 213.751 C 78.839 236.805, 71.420 261.498, 67.855 284.500 C 65.594 299.082, 64.301 332.451, 65.458 346.340 L 66.180 355 74.340 355.020 C 94.326 355.067, 121.646 360.854, 136.177 368.117 C 142.833 371.445, 143.796 372.553, 140.739 373.373 C 136.580 374.487, 113.590 374.006, 99.500 372.509 C 91.800 371.691, 82.229 371.017, 78.231 371.011 L 70.962 371 71.610 373.750 C 71.967 375.262, 72.538 376.807, 72.879 377.183 C 73.925 378.333, 106.751 380, 128.355 380 C 150.401 380, 162.716 379.052, 181.500 375.911 C 199.569 372.889, 201.235 372.343, 200.448 369.698 C 198.520 363.217, 188.366 344.292, 183.123 337.409 C 172.369 323.290, 167.124 318.250, 128.448 284.875 C 111.128 269.929, 101.342 260.325, 102.379 259.288 C 103.237 258.430, 116.795 266.530, 140.615 282.130 C 152.229 289.736, 162.466 296.242, 163.365 296.587 C 164.540 297.037, 165 296.655, 165 295.229 C 165 294.138, 165.673 292.686, 166.497 292.003 C 168.654 290.212, 174.098 291.777, 196 300.483 C 206.175 304.528, 222.542 310.592, 232.370 313.960 C 242.199 317.327, 251.904 320.931, 253.938 321.969 C 257.423 323.747, 263.282 329.539, 265.500 333.399 C 266.426 335.010, 287.878 341.919, 292.138 341.977 C 293.420 341.995, 294.460 339.104, 296.923 328.674 C 301.689 308.489, 301.697 308.392, 298.683 307.635 C 293.503 306.335, 277.143 305.035, 266 305.037 C 255.617 305.040, 249.898 305.573, 238.886 307.564 C 235.541 308.169, 235.219 308.010, 234.570 305.425 C 232.590 297.533, 220.334 284.844, 207.132 277.017 C 195.415 270.070, 187.748 267.634, 177.500 267.599 C 169.571 267.573, 167.863 267.900, 163.151 270.352 C 160.208 271.882, 157.643 272.977, 157.450 272.783 C 157.011 272.344, 170.296 254.994, 179.158 244.434 C 198.548 221.327, 240.162 186.082, 259.908 176.040 C 265.661 173.114, 282.612 156.628, 290.164 146.615 C 298.708 135.287, 306.473 119.065, 304.358 116.963 C 303.886 116.494, 299.756 116.022, 295.179 115.913 C 287.388 115.728, 284 114.581, 284 112.129 C 284 108.832, 299.473 107.928, 320 110.024 C 339.137 111.979, 344.581 112.449, 348.395 112.474 L 352.291 112.500 356.397 97 L 360.503 81.500 364.001 81.500 C 367.373 81.500, 367.509 81.645, 367.760 85.500 C 367.903 87.700, 366.710 95.125, 365.108 102 C 363.507 108.875, 362.325 114.635, 362.482 114.800 C 362.638 114.965, 370.952 115.977, 380.957 117.049 C 404.122 119.532, 404.190 119.549, 403.805 122.872 C 403.504 125.467, 403.401 125.500, 395.500 125.474 C 391.100 125.460, 379.850 125.133, 370.500 124.748 L 353.500 124.047 363.500 127.454 C 369 129.328, 375.223 130.893, 377.329 130.931 C 380.954 130.996, 381.131 131.147, 380.642 133.750 C 378.748 143.820, 379.066 153.034, 381.611 161.861 C 382.255 164.097, 382.111 164.185, 378.896 163.516 C 377.028 163.128, 370.114 161.278, 363.532 159.405 C 356.949 157.532, 351.041 156, 350.403 156 C 349.440 156, 346 166.791, 346 169.814 C 346 170.310, 356.012 171.282, 368.250 171.974 C 380.488 172.665, 393.650 173.516, 397.500 173.865 C 404.470 174.497, 404.500 174.513, 404.500 177.500 L 404.500 180.500 392 180.789 C 385.125 180.948, 372.162 180.385, 363.194 179.539 C 354.226 178.692, 345.451 178.047, 343.694 178.105 C 337.823 178.297, 370.065 185.882, 377.014 185.943 L 383.527 186 383.363 194.250 C 383.163 204.355, 385.061 213.722, 388.497 219.584 C 389.920 222.013, 390.686 224, 390.199 224 C 389.712 224, 386.662 223.088, 383.421 221.973 C 375.219 219.151, 337.906 209.870, 336.155 210.216 C 334.245 210.593, 331.695 218.982, 333.336 219.487 C 336.607 220.493, 372.242 225.079, 384 226.007 C 403.664 227.559, 404 227.635, 404 230.545 C 404 231.895, 403.438 233.052, 402.750 233.115 C 398.126 233.540, 385.383 232.479, 365.500 230.011 C 352.850 228.441, 339.125 226.908, 335 226.605 L 327.500 226.052 333.500 228.035 C 341.347 230.629, 371.147 237.775, 377.329 238.545 C 381.181 239.025, 382.036 239.465, 381.554 240.721 C 381.221 241.587, 380.676 245.536, 380.341 249.497 C 379.606 258.186, 382.156 271.496, 384.819 272.872 C 385.743 273.350, 389.809 274.056, 393.852 274.441 C 403.348 275.345, 404 275.647, 404 279.138 C 404 283.950, 408.648 284.117, 344 276.981 C 333.825 275.857, 322.575 274.722, 319 274.458 L 312.500 273.977 321 276.483 C 337.666 281.398, 354.549 285.136, 362.669 285.709 C 370.577 286.267, 370.870 286.374, 369.826 288.326 C 368.085 291.577, 369.430 311.403, 371.856 318.250 C 372.976 321.412, 373.519 324, 373.063 324 C 372.607 324, 365.318 322.017, 356.867 319.593 C 342.357 315.431, 318.088 310, 314.001 310 C 312.975 310, 311.893 310.788, 311.597 311.750 C 310.671 314.762, 305 341.999, 305 343.435 C 305 344.787, 314.585 347.749, 315.617 346.716 C 316.042 346.291, 319.990 321.089, 319.997 318.750 C 319.999 318.337, 320.675 318, 321.500 318 C 323.394 318, 323.382 319.363, 321.346 334.626 C 320.437 341.446, 319.964 347.298, 320.296 347.630 C 320.833 348.166, 335.352 351.879, 337.250 351.966 C 337.663 351.985, 338 344.988, 338 336.417 C 338 324.396, 338.286 320.928, 339.250 321.247 C 340.133 321.539, 340.683 325.894, 341.124 336.080 C 341.468 344.011, 341.805 351.026, 341.874 351.670 C 341.992 352.762, 355.799 356.534, 356.632 355.702 C 356.841 355.493, 356.334 348.906, 355.507 341.064 C 354.023 327, 354.140 324.547, 356.263 325.254 C 357.513 325.671, 357.476 325.440, 359.047 342.500 C 359.706 349.650, 360.533 355.821, 360.886 356.214 C 361.735 357.159, 376.157 360.176, 376.791 359.542 C 377.063 359.271, 376.244 352.290, 374.971 344.029 C 373.699 335.767, 372.968 328.699, 373.346 328.321 C 374.896 326.771, 375.955 330.190, 378.049 343.500 C 379.261 351.200, 380.585 358.400, 380.991 359.500 C 381.603 361.155, 383.864 361.905, 394.115 363.848 C 400.927 365.139, 407.512 366.425, 408.750 366.706 L 411 367.217 411 295.191 C 411 225.388, 410.938 223.022, 409 218.500 C 407.820 215.748, 407 211.612, 407 208.417 C 407 203.167, 406.458 202.183, 404.429 203.750 C 403.895 204.162, 404.305 203.713, 405.340 202.750 C 406.375 201.788, 408.184 200.994, 409.361 200.986 C 410.537 200.979, 412.512 200.701, 413.750 200.370 L 416 199.767 416.118 159.633 C 416.183 137.560, 416.525 118.150, 416.878 116.500 C 417.382 114.142, 418.052 113.500, 420.010 113.500 L 422.500 113.500 422.776 128.717 L 423.052 143.934 434.276 143.857 C 447.308 143.768, 454.867 145.469, 470.500 152.010 C 491.972 160.995, 499.547 163.205, 509.399 163.358 C 514.404 163.436, 520.525 163.167, 523 162.760 L 527.500 162.019 523.500 165.602 C 518.180 170.368, 513.703 172.564, 506.372 174.007 C 498.868 175.483, 493.252 174.466, 478.730 168.999 C 461.069 162.351, 455.271 162.586, 434.750 170.782 L 423 175.475 423 186.737 C 423 195.124, 423.322 198, 424.259 198 C 424.951 198, 437.200 195.549, 451.478 192.553 C 465.756 189.556, 477.556 187.222, 477.699 187.366 C 477.842 187.509, 477.676 190.660, 477.330 194.369 C 476.589 202.307, 474.448 205.638, 469.488 206.568 C 467.603 206.922, 464.923 208.350, 463.531 209.742 C 459.075 214.198, 460.297 226.024, 465.957 233.219 L 468.096 235.938 465.798 236.416 C 464.534 236.680, 455.042 238.512, 444.705 240.489 C 419.916 245.230, 421 244.745, 421 251.082 C 421 255.377, 421.261 256.114, 422.601 255.600 C 423.481 255.262, 431.469 253.583, 440.351 251.869 C 475.061 245.170, 472.432 245.959, 473 242.066 C 473.392 239.381, 474.086 238.481, 476.201 237.918 C 478.797 237.227, 478.947 237.405, 480.091 242.514 C 481.332 248.061, 480.926 250.797, 478.773 251.404 C 478.073 251.602, 472.325 252.967, 466 254.438 C 459.675 255.909, 450.450 258.175, 445.500 259.474 L 436.500 261.836 445.807 261.918 L 455.115 262 454.807 266.243 L 454.500 270.487 446 272.075 C 433.344 274.440, 433.360 274.834, 446.118 274.921 L 457.737 275 458.301 279.205 C 458.611 281.518, 458.680 283.708, 458.455 284.073 C 458.229 284.438, 453.671 285.316, 448.325 286.023 C 440.440 287.067, 439.067 287.484, 441.052 288.231 C 442.399 288.738, 447.434 289.006, 452.242 288.826 L 460.984 288.500 462.492 292.928 C 463.321 295.364, 464 297.893, 464 298.549 C 464 299.317, 461.103 299.994, 455.871 300.451 C 451.400 300.841, 446.787 301.513, 445.621 301.945 C 443.675 302.665, 443.751 302.785, 446.542 303.399 C 448.214 303.766, 453.671 304.147, 458.667 304.244 L 467.750 304.421 469.120 307.961 C 469.874 309.907, 470.620 311.770, 470.778 312.100 C 470.937 312.431, 467.789 312.990, 463.783 313.342 C 450.363 314.525, 449.316 315.819, 461.702 315.914 L 472.904 316 476.090 320.750 C 477.843 323.363, 481.770 328.069, 484.817 331.209 L 490.357 336.919 466.929 336.709 C 443.985 336.504, 443.267 336.560, 432.250 339.403 C 421.092 342.283, 421 342.331, 421 345.278 C 421 348.100, 421.164 348.217, 424.250 347.586 C 455.990 341.106, 481.402 341.381, 512.910 348.548 C 520.236 350.214, 522.015 351.385, 520.113 353.287 C 519.501 353.899, 519 357.158, 519 360.529 L 519 366.657 529.348 368.829 C 535.040 370.023, 540.394 371, 541.246 371 C 542.098 371, 548.128 369.233, 554.647 367.073 C 569.114 362.279, 586.145 358.430, 599.719 356.887 C 606.621 356.102, 610.061 355.285, 610.422 354.344 C 610.714 353.581, 611.491 346.889, 612.148 339.472 C 613.860 320.131, 611.235 289.498, 605.938 267 C 593.329 213.450, 567.270 167.445, 528.300 129.934 C 489.821 92.896, 447.752 69.708, 397 57.562 C 374.507 52.180, 344.683 49.690, 320.500 51.176 M 236.516 100.975 C 235.708 102.282, 238.009 103.391, 239.154 102.246 C 239.794 101.606, 239.602 101.061, 238.599 100.676 C 237.755 100.352, 236.817 100.487, 236.516 100.975 M 231 107.714 C 231 110.215, 231.127 110.301, 232.618 108.810 C 233.508 107.920, 233.932 106.699, 233.559 106.096 C 232.332 104.110, 231 104.953, 231 107.714 M 465.571 126.571 C 463.428 128.715, 463.599 130.715, 466.038 132.020 C 470.320 134.312, 474.022 130.904, 471.368 127.115 C 469.607 124.600, 467.720 124.423, 465.571 126.571 M 480.750 126.080 C 476.569 128.515, 480.717 134.292, 485 132 C 487.545 130.638, 487.581 127.381, 485.066 126.035 C 482.764 124.803, 482.946 124.801, 480.750 126.080 M 494.571 126.571 C 492.307 128.836, 492.635 130.876, 495.470 132.168 C 499.990 134.228, 503.425 128.368, 499.066 126.035 C 496.564 124.696, 496.431 124.712, 494.571 126.571 M 196.750 133.080 C 193.775 134.813, 195.184 140, 198.629 140 C 200.032 140, 203 137.284, 203 136 C 203 134.966, 200.132 131.988, 199.179 132.030 C 198.805 132.047, 197.713 132.519, 196.750 133.080 M 224.521 133.621 C 222.572 135.570, 222.865 137.886, 225.250 139.388 C 228.987 141.741, 232.981 135.922, 229.418 133.316 C 227.097 131.620, 226.485 131.658, 224.521 133.621 M 209.384 134.442 C 208.228 137.454, 209.449 139.500, 212.405 139.500 C 215.593 139.500, 217.658 137.157, 216.691 134.636 C 215.896 132.566, 210.162 132.414, 209.384 134.442 M 302.500 153.616 C 294.228 155.332, 284.281 160.053, 280.398 164.106 L 277.626 167 292.063 167.054 C 300.003 167.084, 313.097 167.661, 321.159 168.337 L 335.818 169.565 337.966 162.173 C 339.147 158.107, 339.941 154.608, 339.731 154.397 C 339.520 154.187, 336.958 153.561, 334.037 153.007 C 326.573 151.592, 310.786 151.896, 302.500 153.616 M 206.529 172.355 C 203.641 174.467, 205.261 177, 209.500 177 C 213.739 177, 215.359 174.467, 212.471 172.355 C 211.452 171.610, 210.115 171, 209.500 171 C 208.885 171, 207.548 171.610, 206.529 172.355 M 223.238 172.162 C 221.140 174.260, 221.795 176.910, 224.585 177.611 C 228.019 178.473, 230.975 175.774, 229.381 173.231 C 228.027 171.071, 224.877 170.523, 223.238 172.162 M 148.323 173.601 C 147.264 176.361, 150.095 176.969, 164 176.969 C 177.905 176.969, 180.736 176.361, 179.677 173.601 C 179.151 172.231, 176.889 172, 164 172 C 151.111 172, 148.849 172.231, 148.323 173.601 M 184.599 173.165 C 182.783 174.219, 182.805 174.327, 185.099 175.599 C 187.837 177.116, 194.814 177.404, 196.896 176.086 C 197.663 175.600, 198.015 174.481, 197.677 173.601 C 196.945 171.692, 187.668 171.383, 184.599 173.165 M 270.500 176.855 C 263.173 181.367, 251.641 196.752, 243.770 212.515 C 235.162 229.753, 232.574 241.035, 232.531 261.500 C 232.499 276.861, 234.313 288.766, 237.687 295.340 C 239.115 298.122, 239.185 298.143, 241.194 296.340 C 246.849 291.264, 256.299 276.470, 258.423 269.366 C 259.145 266.951, 258.282 266.602, 248.782 265.463 C 244.362 264.933, 242.925 264.338, 242.449 262.841 C 241.713 260.520, 243.563 258, 246.005 258 C 248.088 258, 255.005 251.306, 259.158 245.271 C 263.637 238.761, 269.198 226.425, 268.829 223.818 C 268.539 221.776, 267.821 221.440, 262.791 220.991 C 253.840 220.194, 253.688 219.168, 261.363 211.308 C 265.036 207.545, 269.542 201.585, 271.436 197.984 C 274.979 191.247, 279.354 177.381, 278.415 175.863 C 277.523 174.419, 273.671 174.902, 270.500 176.855 M 466 194.608 C 463.525 195.351, 451.375 198.227, 439 201 C 426.625 203.773, 415.488 206.473, 414.250 206.999 C 412.448 207.766, 412 208.759, 412 211.979 C 412 214.190, 412.396 216, 412.879 216 C 413.363 216, 416.294 214.839, 419.393 213.420 C 422.492 212.002, 431.434 209.522, 439.264 207.910 C 455.745 204.518, 470.842 201.151, 473 200.388 C 474.297 199.929, 474.276 199.692, 472.847 198.639 C 471.938 197.970, 471.038 196.485, 470.847 195.340 C 470.516 193.352, 470.298 193.319, 466 194.608 M 294.636 207.172 C 284.036 207.983, 272.008 210.524, 269.391 212.505 C 267.698 213.786, 268.340 213.942, 275.500 213.989 C 282.947 214.037, 305.775 215.965, 317.685 217.550 L 322.869 218.240 324.299 213.370 C 325.588 208.982, 325.569 208.438, 324.115 207.878 C 321.471 206.858, 304.155 206.444, 294.636 207.172 M 494.384 208.442 C 493.228 211.454, 494.449 213.500, 497.405 213.500 C 500.990 213.500, 502.959 210.860, 501.070 208.584 C 499.427 206.605, 495.124 206.513, 494.384 208.442 M 509.120 208.776 C 507.800 211.242, 509.546 214, 512.427 214 C 515.742 214, 517.436 211.683, 516.034 209.064 C 514.666 206.507, 510.428 206.331, 509.120 208.776 M 525.200 208.200 C 523.493 209.907, 523.716 212.742, 525.642 213.820 C 527.942 215.107, 530.819 214.144, 531.549 211.844 C 532.731 208.121, 527.996 205.404, 525.200 208.200 M 443.309 214.496 C 431.928 217.392, 428.146 219.373, 435.500 218.587 C 438.250 218.293, 443.538 217.753, 447.250 217.388 C 450.962 217.023, 454 216.373, 454 215.944 C 454 215.515, 454.273 214.452, 454.607 213.582 C 455.383 211.561, 454.597 211.624, 443.309 214.496 M 125.601 222.303 C 122.961 224.233, 123.926 227.432, 127.264 227.817 C 130.365 228.175, 131.966 225.755, 130.338 223.174 C 128.963 220.994, 127.706 220.763, 125.601 222.303 M 139.200 222.200 C 136.897 224.503, 138.503 229, 141.629 229 C 143.032 229, 146 226.284, 146 225 C 146 223.716, 143.032 221, 141.629 221 C 140.953 221, 139.860 221.540, 139.200 222.200 M 153.571 222.571 C 151.624 224.518, 151.598 225.422, 153.445 226.954 C 155.786 228.897, 159.452 227.842, 159.837 225.113 C 160.379 221.281, 156.454 219.689, 153.571 222.571 M 510.655 245.829 C 509.745 246.835, 509 248.115, 509 248.674 C 509 249.979, 512.322 253, 513.757 253 C 515.295 253, 518 250.131, 518 248.500 C 518 246.787, 515.265 244, 513.584 244 C 512.883 244, 511.565 244.823, 510.655 245.829 M 528.544 245.344 C 526.216 247.047, 527.111 251.534, 529.924 252.270 C 532.199 252.865, 536 250.506, 536 248.500 C 536 247.239, 532.379 244, 530.969 244 C 530.646 244, 529.555 244.605, 528.544 245.344 M 561.250 245.086 C 556.976 246.700, 558.955 252.361, 563.609 251.830 C 565.899 251.569, 566.564 250.942, 566.810 248.817 C 567.185 245.573, 564.583 243.827, 561.250 245.086 M 544.105 246.803 C 542.568 249.676, 544.847 252.257, 548.549 251.836 C 551.087 251.547, 551.500 251.080, 551.500 248.500 C 551.500 245.859, 551.119 245.463, 548.316 245.192 C 545.994 244.967, 544.855 245.402, 544.105 246.803 M 277.500 255.713 C 270.030 256.302, 260.009 258.176, 259.445 259.090 C 259.135 259.590, 259.232 260, 259.659 260 C 260.087 260, 269.676 261.118, 280.968 262.485 C 292.261 263.851, 303.402 265.191, 305.727 265.462 C 310.268 265.992, 311.428 265.020, 312.148 260.082 C 312.434 258.117, 311.937 257.507, 309.500 256.831 C 306.327 255.950, 284.268 255.180, 277.500 255.713 M 321.975 262.565 C 321.439 263.976, 321 265.493, 321 265.936 C 321 266.823, 335.191 268.474, 356 270.006 C 363.425 270.553, 371.300 271.216, 373.500 271.479 C 377.206 271.923, 377.279 271.887, 374.500 270.988 C 369.732 269.447, 327.115 260, 324.928 260 C 323.725 260, 322.568 261.005, 321.975 262.565 M 523.250 286.662 C 522.563 286.940, 522 287.981, 522 288.976 C 522 292.067, 527.785 293.169, 530 290.500 C 532.429 287.573, 527.682 284.874, 523.250 286.662 M 484 289 C 484 290.993, 484.446 291.042, 500.250 290.775 C 513.906 290.544, 516.500 290.261, 516.500 289 C 516.500 287.739, 513.906 287.456, 500.250 287.225 C 484.446 286.958, 484 287.007, 484 289 M 536.500 288 C 534.889 290.607, 537.972 291, 560.059 291 C 582.333 291, 583 290.942, 583 289 C 583 287.058, 582.333 287, 560.059 287 C 545.844 287, 536.883 287.380, 536.500 288 M 194 308.888 C 194 310.532, 197.674 313, 200.120 313 C 202.365 313, 200.305 309.740, 197.250 308.459 C 194.286 307.216, 194 307.254, 194 308.888 M 203.919 312.598 C 202.476 314.336, 202.234 314.127, 208.746 316.763 L 213.992 318.886 212.527 316.051 C 210.684 312.489, 205.677 310.480, 203.919 312.598 M 215.446 317.087 C 214.502 318.615, 215.644 319.373, 222.603 321.838 C 230.022 324.466, 230 324.466, 230 322.072 C 230 320.649, 228.548 319.601, 224.462 318.072 C 218.192 315.726, 216.408 315.531, 215.446 317.087 M 233.352 323.524 C 233.013 324.410, 233.132 325.486, 233.617 325.916 C 234.435 326.640, 255.286 334, 256.519 334 C 256.822 334, 256.588 333.099, 255.999 331.999 C 254.389 328.989, 243.525 323.982, 238.267 323.826 C 237.845 323.813, 236.706 323.378, 235.735 322.858 C 234.429 322.159, 233.810 322.332, 233.352 323.524 M 200.108 325.442 C 201.100 326.433, 225.197 336.382, 236.443 340.443 C 249.767 345.254, 287.959 356.641, 312 362.969 C 320.525 365.213, 327.950 367.253, 328.500 367.502 C 329.050 367.752, 325.900 367.710, 321.500 367.410 C 311.202 366.708, 278.572 360.880, 260.136 356.451 C 252.236 354.553, 245.486 353.032, 245.136 353.070 C 242.142 353.402, 273.087 362.556, 290.870 366.600 C 310.414 371.044, 363.235 379.284, 389.500 381.987 C 414.945 384.606, 439.301 388.123, 438.285 389.032 C 436.896 390.275, 411.673 399.707, 403.926 401.880 C 393.183 404.895, 377.999 406.990, 367 406.976 C 354.878 406.960, 342.841 405.229, 314.364 399.406 C 293.517 395.144, 290.221 394.727, 277 394.678 C 258.974 394.612, 252.851 395.579, 221 403.522 C 187.172 411.958, 179.424 413.598, 161.578 416.101 C 144.802 418.453, 116.144 419.124, 95.631 417.644 C 85.831 416.937, 83.841 417.023, 84.213 418.139 C 85.520 422.061, 116.095 424.841, 139.689 423.182 C 162.832 421.555, 176.929 419.026, 218 409.134 C 249.767 401.482, 256.735 400.484, 277.500 400.607 C 293.970 400.704, 297.157 401.034, 315 404.493 C 346.739 410.645, 350.570 411.126, 368.500 411.218 C 393.170 411.343, 404.163 409.012, 447.500 394.464 C 461.250 389.849, 475.875 385.347, 480 384.460 C 490.185 382.271, 516.975 381.421, 529.440 382.891 C 540.363 384.180, 559.347 388.520, 570.979 392.389 C 575.092 393.757, 578.644 394.689, 578.872 394.461 C 580.396 392.938, 546.949 380.803, 533.292 377.924 C 520.911 375.315, 500.414 373.705, 490 374.524 C 480.875 375.243, 462.371 379.612, 454.953 382.800 L 450.407 384.755 427.953 380.916 C 399.527 376.056, 395.056 375.114, 310 356.051 C 275.926 348.414, 237.244 337.790, 214.910 329.934 C 201.348 325.163, 199.168 324.501, 200.108 325.442 M 100.614 338.529 C 98.921 340.222, 99.383 342.549, 101.577 343.391 C 104.886 344.661, 108.056 340.977, 105.895 338.373 C 104.404 336.577, 102.510 336.633, 100.614 338.529 M 114.200 338.200 C 112.717 339.683, 112.637 342.658, 114.057 343.535 C 114.638 343.894, 116.213 343.912, 117.557 343.575 C 121.646 342.549, 120.431 337, 116.118 337 C 115.723 337, 114.860 337.540, 114.200 338.200 M 128.040 338.452 C 126.157 340.721, 127.184 343.500, 129.905 343.500 C 133.059 343.500, 134.846 340.724, 133.070 338.584 C 131.432 336.610, 129.608 336.562, 128.040 338.452 M 447.832 351.013 C 436.281 352.118, 433 352.903, 433 354.561 C 433 355.793, 435.107 355.988, 445.998 355.766 L 458.997 355.500 458.998 352.750 C 459 350.744, 458.527 350.038, 457.250 350.140 C 456.288 350.217, 452.049 350.610, 447.832 351.013 M 470.999 352.613 L 470.997 355.500 485.245 355.170 C 493.082 354.989, 499.682 354.651, 499.913 354.420 C 501.453 352.880, 494.591 351.456, 480.750 350.441 L 471 349.726 470.999 352.613 M 596.500 373.468 C 588.606 374.921, 580.621 376.981, 581.149 377.429 C 581.342 377.593, 586.506 377.979, 592.624 378.287 C 603.721 378.846, 603.751 378.842, 604.874 376.377 C 607.106 371.479, 607.177 371.504, 596.500 373.468 M 300 378.139 C 323.013 382.865, 340.518 385.988, 343.681 385.930 C 347.121 385.866, 352.928 384.267, 350.500 384.052 C 349.950 384.003, 345.675 383.284, 341 382.455 C 332.107 380.877, 299.593 376.926, 297 377.109 C 296.175 377.167, 297.525 377.630, 300 378.139 M 198.182 389.058 C 170.221 394.902, 157.680 396.297, 132.500 396.359 C 120.400 396.389, 108.700 396.087, 106.500 395.686 C 99.974 394.499, 104.598 396.590, 114.017 399.086 C 131.421 403.696, 161.211 401.592, 192.878 393.516 C 203.044 390.923, 220.543 385.123, 218 385.190 C 217.175 385.211, 208.257 386.952, 198.182 389.058 M 502.500 399.656 C 482.291 402.059, 469.625 405.118, 445.412 413.443 C 435.206 416.952, 423.235 420.168, 412.673 422.237 C 403.515 424.032, 396.017 425.901, 396.011 426.392 C 395.996 427.603, 418.604 426.217, 428 424.431 C 432.125 423.647, 444.471 420.533, 455.435 417.512 C 494.341 406.789, 510.696 404.279, 535 405.301 C 546.487 405.784, 566.702 408.491, 573.523 410.459 C 574.610 410.773, 573.925 410.288, 572 409.383 C 565.532 406.340, 548.587 401.893, 538 400.460 C 528.472 399.171, 510.086 398.754, 502.500 399.656 M 257.500 416.421 C 246.925 418.002, 231.370 421.407, 225 423.534 L 220.500 425.037 224.500 424.549 C 226.700 424.280, 233 423.505, 238.500 422.826 C 244.197 422.122, 260.763 421.572, 277 421.546 C 300.338 421.508, 307.219 421.824, 314.992 423.292 C 320.213 424.277, 325.613 425.294, 326.992 425.552 C 332.308 426.547, 314.993 420.777, 305.500 418.390 C 293.017 415.253, 271.277 414.361, 257.500 416.421 M 514.500 421.682 C 510.550 422.185, 485.910 427.263, 486.242 427.506 C 486.384 427.610, 495.950 427.221, 507.500 426.642 C 532.555 425.385, 550.896 425.245, 564.500 426.206 C 576.189 427.032, 574.752 426.006, 560.013 423.003 C 552.278 421.426, 546.706 421.032, 533.843 421.150 C 524.854 421.232, 516.150 421.472, 514.500 421.682 M 316.530 457.473 C 318.429 461.765, 319 464.763, 319 470.435 L 319 477.812 313.922 481.460 C 308.351 485.463, 308.390 487.268, 314.077 488.517 C 315.694 488.872, 317.463 489.996, 318.008 491.016 C 318.554 492.035, 318.990 497.511, 318.978 503.184 C 318.961 511.292, 318.533 514.433, 316.978 517.859 C 315.890 520.257, 315 522.394, 315 522.609 C 315 523.531, 352.512 522.900, 356.436 521.912 C 364.780 519.811, 371.355 511.984, 372.637 502.628 C 373.440 496.774, 371.634 491.764, 367.373 488.023 L 363.868 484.945 366.434 481.896 C 373.500 473.499, 370.087 460.152, 359.447 454.570 C 355.891 452.705, 353.447 452.470, 334.780 452.194 L 314.061 451.888 316.530 457.473 M 400.591 453.573 C 387.254 458.460, 382.402 469.647, 383.158 493.763 C 383.579 507.182, 385.252 511.927, 392.020 518.901 C 398.713 525.798, 403.050 527.494, 414 527.497 C 422.620 527.500, 423.944 527.239, 428.292 524.683 C 433.932 521.368, 438.239 515.806, 440.547 508.859 C 441.884 504.832, 442.138 500.819, 441.853 488.181 C 441.520 473.377, 441.343 472.180, 438.686 466.770 C 435.449 460.177, 430.541 455.713, 424.128 453.528 C 418.535 451.622, 405.849 451.647, 400.591 453.573 M 237.752 453.582 C 237.432 453.901, 237.807 455.687, 238.585 457.549 C 239.699 460.216, 239.995 467.264, 239.978 490.718 C 239.958 518.316, 239.810 520.823, 237.960 524.899 C 236.863 527.318, 236.085 529.388, 236.232 529.499 C 236.380 529.610, 241.675 529.115, 248 528.399 C 254.325 527.683, 260.072 527.076, 260.770 527.049 C 261.678 527.014, 261.464 525.871, 260.020 523.040 C 258.354 519.774, 258 517.143, 258 508.040 L 258 497 261.418 497 C 263.298 497, 265.473 496.756, 266.251 496.457 C 267.243 496.076, 268.645 498.087, 270.955 503.207 C 272.765 507.218, 275.782 513.763, 277.660 517.750 L 281.075 525 285.288 524.993 C 287.604 524.989, 292.516 524.701, 296.202 524.353 L 302.903 523.720 299.835 519.260 C 296.591 514.546, 287 494.889, 287 492.956 C 287 492.330, 288.562 489.993, 290.470 487.763 C 294.952 482.528, 296.326 478.183, 295.800 470.909 C 295.287 463.816, 291.762 458.715, 284.980 455.250 C 280.824 453.127, 279.387 453, 259.455 453 C 247.838 453, 238.072 453.262, 237.752 453.582 M 179.549 455.217 C 179.322 455.923, 174.783 471.967, 169.462 490.871 C 159.527 526.170, 157.342 532.698, 153.233 539.344 C 151.925 541.459, 151.078 543.412, 151.350 543.684 C 151.817 544.150, 176.712 539.207, 178.190 538.354 C 178.569 538.135, 178.233 536.408, 177.442 534.516 C 175.481 529.822, 177.182 521.296, 180.347 519.959 C 182.257 519.152, 197.936 516, 200.040 516 C 200.490 516, 201.373 518.481, 202.003 521.513 C 203.051 526.560, 202.962 527.325, 200.960 530.566 C 199.756 532.512, 199.040 534.374, 199.369 534.702 C 199.871 535.204, 214.678 533.224, 224.227 531.378 L 226.954 530.851 224.014 525.027 C 221.248 519.548, 218.582 511.085, 206.996 471 L 202.227 454.500 191.095 454.217 C 182.718 454.004, 179.860 454.252, 179.549 455.217 M 455 455.292 C 455 455.619, 456.012 457.599, 457.250 459.693 C 459.389 463.312, 459.526 464.808, 460.024 490 C 460.520 515.097, 460.673 516.779, 462.910 521.779 C 469.098 535.611, 487.003 543.173, 502.568 538.529 C 508.992 536.612, 513.858 532.492, 517.534 525.856 L 520.500 520.500 521 492.500 C 521.479 465.651, 521.592 464.351, 523.750 460.882 C 524.987 458.892, 526 456.980, 526 456.632 C 526 456.284, 519.700 456, 512 456 C 503.565 456, 498 456.388, 498 456.976 C 498 457.513, 498.898 459.425, 499.996 461.226 C 501.853 464.272, 501.993 466.280, 501.996 490.027 C 502 518.293, 501.875 518.901, 495.505 521.562 C 491.396 523.279, 486.300 522.012, 482.944 518.441 C 480.631 515.979, 480.504 515.085, 479.712 495.689 C 478.727 471.586, 479.091 465.702, 481.909 460.178 L 484.041 456 479.270 455.995 C 476.647 455.992, 470.113 455.699, 464.750 455.344 C 459.387 454.989, 455 454.966, 455 455.292 M 79.750 457.775 C 71.088 457.927, 64 458.228, 64 458.444 C 64 458.660, 65.575 462.124, 67.500 466.140 L 71 473.444 70.943 487.972 L 70.886 502.500 65.882 506.313 C 59.352 511.289, 59.469 513.781, 66.331 515.906 L 71.162 517.401 70.811 533.951 C 70.470 550.005, 70.365 550.717, 67.275 557.750 C 65.523 561.737, 64.262 565, 64.473 565 C 65.971 565, 94.650 557.659, 95.219 557.130 C 95.615 556.762, 94.828 554.063, 93.469 551.131 C 91.219 546.273, 91 544.574, 91 531.939 L 91 518.077 95.088 516.976 C 98.902 515.949, 114.580 513.004, 116.250 513.001 C 116.662 513.001, 116.989 518.962, 116.976 526.250 C 116.955 538.026, 116.678 540.168, 114.481 545.500 C 111.446 552.866, 111.431 553.358, 114.250 552.739 C 115.487 552.467, 121.900 551.058, 128.500 549.608 C 135.100 548.158, 141.047 546.774, 141.715 546.531 C 142.586 546.215, 142.232 544.513, 140.465 540.516 C 138.008 534.961, 138 534.836, 138.010 502.221 L 138.020 469.500 140.510 464.151 C 141.879 461.209, 143 458.396, 143 457.901 C 143 457.405, 136.027 457, 127.500 457 C 118.975 457, 112 457.394, 112 457.876 C 112 458.357, 113.125 461.295, 114.500 464.404 C 116.730 469.447, 117 471.401, 117 482.509 C 117 494.605, 116.935 494.977, 114.750 495.473 C 112.849 495.905, 92.293 499, 91.324 499 C 91.146 499, 91 492.418, 91 484.374 C 91 470.139, 91.079 469.591, 93.966 463.911 C 95.597 460.702, 96.609 457.946, 96.216 457.788 C 95.822 457.629, 88.412 457.624, 79.750 457.775 M 539 457.362 C 539 457.561, 540.350 460.701, 542 464.340 C 544.839 470.600, 545 471.653, 545 483.916 L 545 496.875 540.058 499.565 C 532.299 503.788, 532.506 506.573, 540.841 510.146 L 545.210 512.019 544.834 523.759 C 544.483 534.697, 544.233 535.937, 541.171 541.893 C 539.364 545.409, 538.249 548.602, 538.693 548.990 C 539.333 549.549, 565.205 555, 567.217 555 C 567.500 555, 566.892 552.455, 565.866 549.345 C 564.410 544.933, 564 540.673, 564 529.968 L 564 516.246 568.750 516.702 C 575.502 517.350, 575.666 517.448, 577.032 521.680 C 578.968 527.679, 587.493 549.052, 590.399 555.195 L 593.031 560.759 605.243 563.819 C 611.960 565.502, 617.629 566.705, 617.841 566.492 C 618.053 566.280, 615.757 560.795, 612.737 554.303 C 606.497 540.887, 596 515.763, 596 514.242 C 596 513.685, 597.204 512.441, 598.676 511.477 C 607.836 505.475, 612.521 494.226, 610.874 482.187 C 609.777 474.167, 607.198 469.224, 601.486 464.197 C 593.921 457.538, 591.070 457, 563.322 457 C 549.945 457, 539 457.163, 539 457.362 M 337.250 465.662 C 336.432 465.992, 336 468.386, 336 472.583 L 336 479 342.045 479 C 347.131 479, 348.481 478.610, 350.545 476.545 C 351.895 475.195, 353 473.150, 353 472 C 353 470.850, 351.895 468.805, 350.545 467.455 C 348.589 465.498, 347.117 465.016, 343.295 465.079 C 340.658 465.122, 337.938 465.385, 337.250 465.662 M 263.250 466.737 L 258 467.105 258 475.665 L 258 484.226 264.968 483.832 C 274.035 483.320, 277.369 481.068, 277.807 475.162 C 278.054 471.832, 277.623 470.532, 275.602 468.511 C 274.171 467.080, 272.104 466.080, 270.795 466.185 C 269.533 466.287, 266.137 466.535, 263.250 466.737 M 406.304 467.956 C 401.697 470.765, 400.729 475.112, 401.147 491.110 C 401.547 506.409, 402.536 509.072, 408.780 511.681 C 411.666 512.887, 413.154 512.971, 416.092 512.091 C 422.397 510.202, 423 508.252, 423 489.758 C 423 471.918, 422.587 470.389, 416.989 467.494 C 413.112 465.489, 410.139 465.618, 406.304 467.956 M 564 486.718 L 564 500.731 571.095 501.239 C 584.892 502.226, 589.104 499.704, 589.804 490.037 C 590.669 478.068, 586.769 474.179, 573.005 473.287 L 564 472.704 564 486.718 M 189.676 480 C 188.981 481.791, 183 502.609, 183 503.234 C 183 503.725, 195.154 502.179, 195.717 501.616 C 195.917 501.417, 194.770 496.134, 193.169 489.877 C 191.567 483.619, 189.995 479.175, 189.676 480 M 336 500.500 L 336 509 342.944 509 C 348.721 509, 350.318 508.622, 352.445 506.750 C 356.360 503.305, 356.749 499.043, 353.500 495.182 C 350.934 492.133, 350.512 492, 343.411 492 L 336 492 336 500.500 M 322 548.431 C 310.885 551.524, 302.326 558.616, 296.684 569.410 C 293.643 575.226, 293.500 576.017, 293.500 587 C 293.500 597.853, 293.679 598.878, 296.686 605.225 C 302.435 617.362, 314.842 626.406, 327.542 627.716 C 332.590 628.238, 333.166 628.109, 332.852 626.534 C 332.598 625.258, 330.423 624.241, 325.015 622.869 C 320.642 621.760, 315.347 619.522, 312.280 617.485 C 309.393 615.568, 306.536 614, 305.932 614 C 305.328 614, 305.012 613.465, 305.230 612.811 C 305.448 612.157, 304.125 609.128, 302.290 606.081 C 298.101 599.125, 296.691 594.128, 296.765 586.500 C 296.835 579.299, 298.557 574.228, 303.670 566.159 C 306.900 561.062, 308.558 559.566, 314.258 556.606 C 317.975 554.676, 323.712 552.567, 327.008 551.919 C 331.774 550.981, 333 550.357, 333 548.870 C 333 546.630, 329.039 546.472, 322 548.431 M 335 548.713 C 335 550.272, 336.093 550.927, 340.250 551.859 C 349.790 553.999, 363.234 561.799, 362.285 564.644 C 362.078 565.267, 363.047 567.455, 364.440 569.506 C 366.938 573.188, 368.984 578.888, 368.994 582.200 C 368.997 583.135, 369.766 584.329, 370.703 584.854 C 371.984 585.571, 372.134 586.140, 371.310 587.153 C 370.708 587.894, 369.482 591.388, 368.586 594.917 C 364.620 610.530, 353.602 621.281, 339.208 623.583 C 335.882 624.115, 335 624.677, 335 626.267 C 335 628.097, 335.458 628.224, 340.077 627.677 C 351.554 626.318, 364.564 616.562, 369.616 605.528 C 372.188 599.911, 374.167 588.433, 373.396 583.602 C 370.156 563.286, 357.885 550.277, 339.250 547.400 C 335.467 546.816, 335 546.961, 335 548.713 M 322 556.168 C 320.075 556.712, 318.098 557.546, 317.606 558.022 C 316.522 559.072, 327.056 577.072, 328.500 576.638 C 329.061 576.469, 329.624 571.659, 329.784 565.669 C 330.103 553.686, 330.232 553.844, 322 556.168 M 337 565.889 C 337 574.122, 337.324 577, 338.252 577 C 339.239 577, 348.411 563.439, 349.814 559.908 C 350.255 558.797, 345.138 556.304, 340.715 555.474 L 337 554.777 337 565.889 M 303.290 574.165 C 302.158 575.546, 299.626 583.972, 300.184 584.501 C 300.358 584.665, 305.563 584.556, 311.750 584.258 C 319.867 583.868, 323 583.365, 323 582.452 C 323 581.757, 320.797 579.605, 318.105 577.671 C 312.582 573.703, 305.119 571.937, 303.290 574.165 M 353.395 575.490 C 348.124 578.117, 344 581.430, 344 583.039 C 344 583.568, 345.913 584.003, 348.250 584.007 C 350.587 584.011, 355.538 584.301, 359.250 584.652 C 365.665 585.258, 366 585.184, 366 583.165 C 366 581.996, 365.276 579.231, 364.391 577.020 C 362.451 572.170, 360.581 571.909, 353.395 575.490 M 330.362 585.500 C 329.486 587.781, 330.711 590, 332.846 590 C 335.326 590, 337.204 587.695, 336.410 585.627 C 335.626 583.583, 331.133 583.489, 330.362 585.500 M 300.530 592.289 C 300.900 594.055, 302.044 597.439, 303.072 599.810 L 304.940 604.119 309.720 601.374 C 317.145 597.110, 323 592.991, 323 592.032 C 323 591.552, 319.962 590.891, 316.250 590.563 C 312.538 590.235, 307.331 589.766, 304.679 589.522 L 299.858 589.077 300.530 592.289 M 345.198 591.927 C 344.891 592.726, 345.121 593.540, 345.709 593.736 C 346.298 593.933, 349.957 596.282, 353.841 598.958 C 359.242 602.679, 361.144 603.531, 361.930 602.585 C 363.568 600.611, 366 594.258, 366 591.952 C 366 589.921, 365.612 589.853, 355.878 590.157 C 348.163 590.399, 345.623 590.820, 345.198 591.927 M 322.221 606.295 C 317.544 613.333, 316.387 615.763, 317.302 616.619 C 318.888 618.099, 324.704 620, 327.649 620 C 329.974 620, 330 619.878, 330 609.059 C 330 603.041, 329.626 597.887, 329.169 597.604 C 328.712 597.322, 325.586 601.233, 322.221 606.295 M 337.639 597.694 C 337.288 598.046, 337 603.482, 337 609.775 L 337 621.217 339.750 620.535 C 341.262 620.160, 344.468 618.987, 346.873 617.928 C 350.876 616.167, 351.130 615.845, 349.873 614.128 C 344.455 606.728, 340 599.954, 340 599.114 C 340 597.808, 338.455 596.879, 337.639 597.694" stroke="none" fill="#060e15" fill-rule="evenodd"/><path d="M 320.500 51.176 C 224.076 57.102, 129.210 123.755, 89.111 213.751 C 78.839 236.805, 71.420 261.498, 67.855 284.500 C 65.594 299.082, 64.301 332.451, 65.458 346.340 L 66.180 355 74.340 355.020 C 94.326 355.067, 121.646 360.854, 136.177 368.117 C 142.833 371.445, 143.796 372.553, 140.739 373.373 C 136.580 374.487, 113.590 374.006, 99.500 372.509 C 91.800 371.691, 82.229 371.017, 78.231 371.011 L 70.962 371 71.610 373.750 C 71.967 375.262, 72.538 376.807, 72.879 377.183 C 73.925 378.333, 106.751 380, 128.355 380 C 150.401 380, 162.716 379.052, 181.500 375.911 C 199.569 372.889, 201.235 372.343, 200.448 369.698 C 198.520 363.217, 188.366 344.292, 183.123 337.409 C 172.369 323.290, 167.124 318.250, 128.448 284.875 C 111.128 269.929, 101.342 260.325, 102.379 259.288 C 103.237 258.430, 116.795 266.530, 140.615 282.130 C 152.229 289.736, 162.466 296.242, 163.365 296.587 C 164.540 297.037, 165 296.655, 165 295.229 C 165 294.138, 165.673 292.686, 166.497 292.003 C 168.654 290.212, 174.098 291.777, 196 300.483 C 206.175 304.528, 222.542 310.592, 232.370 313.960 C 242.199 317.327, 251.904 320.931, 253.938 321.969 C 257.423 323.747, 263.282 329.539, 265.500 333.399 C 266.426 335.010, 287.878 341.919, 292.138 341.977 C 293.420 341.995, 294.460 339.104, 296.923 328.674 C 301.689 308.489, 301.697 308.392, 298.683 307.635 C 293.503 306.335, 277.143 305.035, 266 305.037 C 255.617 305.040, 249.898 305.573, 238.886 307.564 C 235.541 308.169, 235.219 308.010, 234.570 305.425 C 232.590 297.533, 220.334 284.844, 207.132 277.017 C 195.415 270.070, 187.748 267.634, 177.500 267.599 C 169.571 267.573, 167.863 267.900, 163.151 270.352 C 160.208 271.882, 157.643 272.977, 157.450 272.783 C 157.011 272.344, 170.296 254.994, 179.158 244.434 C 198.548 221.327, 240.162 186.082, 259.908 176.040 C 265.661 173.114, 282.612 156.628, 290.164 146.615 C 298.708 135.287, 306.473 119.065, 304.358 116.963 C 303.886 116.494, 299.756 116.022, 295.179 115.913 C 287.388 115.728, 284 114.581, 284 112.129 C 284 108.832, 299.473 107.928, 320 110.024 C 339.137 111.979, 344.581 112.449, 348.395 112.474 L 352.291 112.500 356.397 97 L 360.503 81.500 364.001 81.500 C 367.373 81.500, 367.509 81.645, 367.760 85.500 C 367.903 87.700, 366.710 95.125, 365.108 102 C 363.507 108.875, 362.325 114.635, 362.482 114.800 C 362.638 114.965, 370.952 115.977, 380.957 117.049 C 404.122 119.532, 404.190 119.549, 403.805 122.872 C 403.504 125.467, 403.401 125.500, 395.500 125.474 C 391.100 125.460, 379.850 125.133, 370.500 124.748 L 353.500 124.047 363.500 127.454 C 369 129.328, 375.223 130.893, 377.329 130.931 C 380.954 130.996, 381.131 131.147, 380.642 133.750 C 378.748 143.820, 379.066 153.034, 381.611 161.861 C 382.255 164.097, 382.111 164.185, 378.896 163.516 C 377.028 163.128, 370.114 161.278, 363.532 159.405 C 356.949 157.532, 351.041 156, 350.403 156 C 349.440 156, 346 166.791, 346 169.814 C 346 170.310, 356.012 171.282, 368.250 171.974 C 380.488 172.665, 393.650 173.516, 397.500 173.865 C 404.470 174.497, 404.500 174.513, 404.500 177.500 L 404.500 180.500 392 180.789 C 385.125 180.948, 372.162 180.385, 363.194 179.539 C 354.226 178.692, 345.451 178.047, 343.694 178.105 C 337.823 178.297, 370.065 185.882, 377.014 185.943 L 383.527 186 383.363 194.250 C 383.163 204.355, 385.061 213.722, 388.497 219.584 C 389.920 222.013, 390.686 224, 390.199 224 C 389.712 224, 386.662 223.088, 383.421 221.973 C 375.219 219.151, 337.906 209.870, 336.155 210.216 C 334.245 210.593, 331.695 218.982, 333.336 219.487 C 336.607 220.493, 372.242 225.079, 384 226.007 C 403.664 227.559, 404 227.635, 404 230.545 C 404 231.895, 403.438 233.052, 402.750 233.115 C 398.126 233.540, 385.383 232.479, 365.500 230.011 C 352.850 228.441, 339.125 226.908, 335 226.605 L 327.500 226.052 333.500 228.035 C 341.347 230.629, 371.147 237.775, 377.329 238.545 C 381.181 239.025, 382.036 239.465, 381.554 240.721 C 381.221 241.587, 380.676 245.536, 380.341 249.497 C 379.606 258.186, 382.156 271.496, 384.819 272.872 C 385.743 273.350, 389.809 274.056, 393.852 274.441 C 403.348 275.345, 404 275.647, 404 279.138 C 404 283.950, 408.648 284.117, 344 276.981 C 333.825 275.857, 322.575 274.722, 319 274.458 L 312.500 273.977 321 276.483 C 337.666 281.398, 354.549 285.136, 362.669 285.709 C 370.577 286.267, 370.870 286.374, 369.826 288.326 C 368.085 291.577, 369.430 311.403, 371.856 318.250 C 372.976 321.412, 373.519 324, 373.063 324 C 372.607 324, 365.318 322.017, 356.867 319.593 C 342.357 315.431, 318.088 310, 314.001 310 C 312.975 310, 311.893 310.788, 311.597 311.750 C 310.671 314.762, 305 341.999, 305 343.435 C 305 344.787, 314.585 347.749, 315.617 346.716 C 316.042 346.291, 319.990 321.089, 319.997 318.750 C 319.999 318.337, 320.675 318, 321.500 318 C 323.394 318, 323.382 319.363, 321.346 334.626 C 320.437 341.446, 319.964 347.298, 320.296 347.630 C 320.833 348.166, 335.352 351.879, 337.250 351.966 C 337.663 351.985, 338 344.988, 338 336.417 C 338 324.396, 338.286 320.928, 339.250 321.247 C 340.133 321.539, 340.683 325.894, 341.124 336.080 C 341.468 344.011, 341.805 351.026, 341.874 351.670 C 341.992 352.762, 355.799 356.534, 356.632 355.702 C 356.841 355.493, 356.334 348.906, 355.507 341.064 C 354.023 327, 354.140 324.547, 356.263 325.254 C 357.513 325.671, 357.476 325.440, 359.047 342.500 C 359.706 349.650, 360.533 355.821, 360.886 356.214 C 361.735 357.159, 376.157 360.176, 376.791 359.542 C 377.063 359.271, 376.244 352.290, 374.971 344.029 C 373.699 335.767, 372.968 328.699, 373.346 328.321 C 374.896 326.771, 375.955 330.190, 378.049 343.500 C 379.261 351.200, 380.585 358.400, 380.991 359.500 C 381.603 361.155, 383.864 361.905, 394.115 363.848 C 400.927 365.139, 407.512 366.425, 408.750 366.706 L 411 367.217 411 295.191 C 411 225.388, 410.938 223.022, 409 218.500 C 407.820 215.748, 407 211.612, 407 208.417 C 407 203.167, 406.458 202.183, 404.429 203.750 C 403.895 204.162, 404.305 203.713, 405.340 202.750 C 406.375 201.788, 408.184 200.994, 409.361 200.986 C 410.537 200.979, 412.512 200.701, 413.750 200.370 L 416 199.767 416.118 159.633 C 416.183 137.560, 416.525 118.150, 416.878 116.500 C 417.382 114.142, 418.052 113.500, 420.010 113.500 L 422.500 113.500 422.776 128.717 L 423.052 143.934 434.276 143.857 C 447.308 143.768, 454.867 145.469, 470.500 152.010 C 491.972 160.995, 499.547 163.205, 509.399 163.358 C 514.404 163.436, 520.525 163.167, 523 162.760 L 527.500 162.019 523.500 165.602 C 518.180 170.368, 513.703 172.564, 506.372 174.007 C 498.868 175.483, 493.252 174.466, 478.730 168.999 C 461.069 162.351, 455.271 162.586, 434.750 170.782 L 423 175.475 423 186.737 C 423 195.124, 423.322 198, 424.259 198 C 424.951 198, 437.200 195.549, 451.478 192.553 C 465.756 189.556, 477.556 187.222, 477.699 187.366 C 477.842 187.509, 477.676 190.660, 477.330 194.369 C 476.589 202.307, 474.448 205.638, 469.488 206.568 C 467.603 206.922, 464.923 208.350, 463.531 209.742 C 459.075 214.198, 460.297 226.024, 465.957 233.219 L 468.096 235.938 465.798 236.416 C 464.534 236.680, 455.042 238.512, 444.705 240.489 C 419.916 245.230, 421 244.745, 421 251.082 C 421 255.377, 421.261 256.114, 422.601 255.600 C 423.481 255.262, 431.469 253.583, 440.351 251.869 C 475.061 245.170, 472.432 245.959, 473 242.066 C 473.392 239.381, 474.086 238.481, 476.201 237.918 C 478.797 237.227, 478.947 237.405, 480.091 242.514 C 481.332 248.061, 480.926 250.797, 478.773 251.404 C 478.073 251.602, 472.325 252.967, 466 254.438 C 459.675 255.909, 450.450 258.175, 445.500 259.474 L 436.500 261.836 445.807 261.918 L 455.115 262 454.807 266.243 L 454.500 270.487 446 272.075 C 433.344 274.440, 433.360 274.834, 446.118 274.921 L 457.737 275 458.301 279.205 C 458.611 281.518, 458.680 283.708, 458.455 284.073 C 458.229 284.438, 453.671 285.316, 448.325 286.023 C 440.440 287.067, 439.067 287.484, 441.052 288.231 C 442.399 288.738, 447.434 289.006, 452.242 288.826 L 460.984 288.500 462.492 292.928 C 463.321 295.364, 464 297.893, 464 298.549 C 464 299.317, 461.103 299.994, 455.871 300.451 C 451.400 300.841, 446.787 301.513, 445.621 301.945 C 443.675 302.665, 443.751 302.785, 446.542 303.399 C 448.214 303.766, 453.671 304.147, 458.667 304.244 L 467.750 304.421 469.120 307.961 C 469.874 309.907, 470.620 311.770, 470.778 312.100 C 470.937 312.431, 467.789 312.990, 463.783 313.342 C 450.363 314.525, 449.316 315.819, 461.702 315.914 L 472.904 316 476.090 320.750 C 477.843 323.363, 481.770 328.069, 484.817 331.209 L 490.357 336.919 466.929 336.709 C 443.985 336.504, 443.267 336.560, 432.250 339.403 C 421.092 342.283, 421 342.331, 421 345.278 C 421 348.100, 421.164 348.217, 424.250 347.586 C 455.990 341.106, 481.402 341.381, 512.910 348.548 C 520.236 350.214, 522.015 351.385, 520.113 353.287 C 519.501 353.899, 519 357.158, 519 360.529 L 519 366.657 529.348 368.829 C 535.040 370.023, 540.394 371, 541.246 371 C 542.098 371, 548.128 369.233, 554.647 367.073 C 569.114 362.279, 586.145 358.430, 599.719 356.887 C 606.621 356.102, 610.061 355.285, 610.422 354.344 C 610.714 353.581, 611.491 346.889, 612.148 339.472 C 613.860 320.131, 611.235 289.498, 605.938 267 C 593.329 213.450, 567.270 167.445, 528.300 129.934 C 489.821 92.896, 447.752 69.708, 397 57.562 C 374.507 52.180, 344.683 49.690, 320.500 51.176 M 236.516 100.975 C 235.708 102.282, 238.009 103.391, 239.154 102.246 C 239.794 101.606, 239.602 101.061, 238.599 100.676 C 237.755 100.352, 236.817 100.487, 236.516 100.975 M 231 107.714 C 231 110.215, 231.127 110.301, 232.618 108.810 C 233.508 107.920, 233.932 106.699, 233.559 106.096 C 232.332 104.110, 231 104.953, 231 107.714 M 465.571 126.571 C 463.428 128.715, 463.599 130.715, 466.038 132.020 C 470.320 134.312, 474.022 130.904, 471.368 127.115 C 469.607 124.600, 467.720 124.423, 465.571 126.571 M 480.750 126.080 C 476.569 128.515, 480.717 134.292, 485 132 C 487.545 130.638, 487.581 127.381, 485.066 126.035 C 482.764 124.803, 482.946 124.801, 480.750 126.080 M 494.571 126.571 C 492.307 128.836, 492.635 130.876, 495.470 132.168 C 499.990 134.228, 503.425 128.368, 499.066 126.035 C 496.564 124.696, 496.431 124.712, 494.571 126.571 M 196.750 133.080 C 193.775 134.813, 195.184 140, 198.629 140 C 200.032 140, 203 137.284, 203 136 C 203 134.966, 200.132 131.988, 199.179 132.030 C 198.805 132.047, 197.713 132.519, 196.750 133.080 M 224.521 133.621 C 222.572 135.570, 222.865 137.886, 225.250 139.388 C 228.987 141.741, 232.981 135.922, 229.418 133.316 C 227.097 131.620, 226.485 131.658, 224.521 133.621 M 209.384 134.442 C 208.228 137.454, 209.449 139.500, 212.405 139.500 C 215.593 139.500, 217.658 137.157, 216.691 134.636 C 215.896 132.566, 210.162 132.414, 209.384 134.442 M 302.500 153.616 C 294.228 155.332, 284.281 160.053, 280.398 164.106 L 277.626 167 292.063 167.054 C 300.003 167.084, 313.097 167.661, 321.159 168.337 L 335.818 169.565 337.966 162.173 C 339.147 158.107, 339.941 154.608, 339.731 154.397 C 339.520 154.187, 336.958 153.561, 334.037 153.007 C 326.573 151.592, 310.786 151.896, 302.500 153.616 M 206.529 172.355 C 203.641 174.467, 205.261 177, 209.500 177 C 213.739 177, 215.359 174.467, 212.471 172.355 C 211.452 171.610, 210.115 171, 209.500 171 C 208.885 171, 207.548 171.610, 206.529 172.355 M 223.238 172.162 C 221.140 174.260, 221.795 176.910, 224.585 177.611 C 228.019 178.473, 230.975 175.774, 229.381 173.231 C 228.027 171.071, 224.877 170.523, 223.238 172.162 M 148.323 173.601 C 147.264 176.361, 150.095 176.969, 164 176.969 C 177.905 176.969, 180.736 176.361, 179.677 173.601 C 179.151 172.231, 176.889 172, 164 172 C 151.111 172, 148.849 172.231, 148.323 173.601 M 184.599 173.165 C 182.783 174.219, 182.805 174.327, 185.099 175.599 C 187.837 177.116, 194.814 177.404, 196.896 176.086 C 197.663 175.600, 198.015 174.481, 197.677 173.601 C 196.945 171.692, 187.668 171.383, 184.599 173.165 M 270.500 176.855 C 263.173 181.367, 251.641 196.752, 243.770 212.515 C 235.162 229.753, 232.574 241.035, 232.531 261.500 C 232.499 276.861, 234.313 288.766, 237.687 295.340 C 239.115 298.122, 239.185 298.143, 241.194 296.340 C 246.849 291.264, 256.299 276.470, 258.423 269.366 C 259.145 266.951, 258.282 266.602, 248.782 265.463 C 244.362 264.933, 242.925 264.338, 242.449 262.841 C 241.713 260.520, 243.563 258, 246.005 258 C 248.088 258, 255.005 251.306, 259.158 245.271 C 263.637 238.761, 269.198 226.425, 268.829 223.818 C 268.539 221.776, 267.821 221.440, 262.791 220.991 C 253.840 220.194, 253.688 219.168, 261.363 211.308 C 265.036 207.545, 269.542 201.585, 271.436 197.984 C 274.979 191.247, 279.354 177.381, 278.415 175.863 C 277.523 174.419, 273.671 174.902, 270.500 176.855 M 466 194.608 C 463.525 195.351, 451.375 198.227, 439 201 C 426.625 203.773, 415.488 206.473, 414.250 206.999 C 412.448 207.766, 412 208.759, 412 211.979 C 412 214.190, 412.396 216, 412.879 216 C 413.363 216, 416.294 214.839, 419.393 213.420 C 422.492 212.002, 431.434 209.522, 439.264 207.910 C 455.745 204.518, 470.842 201.151, 473 200.388 C 474.297 199.929, 474.276 199.692, 472.847 198.639 C 471.938 197.970, 471.038 196.485, 470.847 195.340 C 470.516 193.352, 470.298 193.319, 466 194.608 M 294.636 207.172 C 284.036 207.983, 272.008 210.524, 269.391 212.505 C 267.698 213.786, 268.340 213.942, 275.500 213.989 C 282.947 214.037, 305.775 215.965, 317.685 217.550 L 322.869 218.240 324.299 213.370 C 325.588 208.982, 325.569 208.438, 324.115 207.878 C 321.471 206.858, 304.155 206.444, 294.636 207.172 M 494.384 208.442 C 493.228 211.454, 494.449 213.500, 497.405 213.500 C 500.990 213.500, 502.959 210.860, 501.070 208.584 C 499.427 206.605, 495.124 206.513, 494.384 208.442 M 509.120 208.776 C 507.800 211.242, 509.546 214, 512.427 214 C 515.742 214, 517.436 211.683, 516.034 209.064 C 514.666 206.507, 510.428 206.331, 509.120 208.776 M 525.200 208.200 C 523.493 209.907, 523.716 212.742, 525.642 213.820 C 527.942 215.107, 530.819 214.144, 531.549 211.844 C 532.731 208.121, 527.996 205.404, 525.200 208.200 M 443.309 214.496 C 431.928 217.392, 428.146 219.373, 435.500 218.587 C 438.250 218.293, 443.538 217.753, 447.250 217.388 C 450.962 217.023, 454 216.373, 454 215.944 C 454 215.515, 454.273 214.452, 454.607 213.582 C 455.383 211.561, 454.597 211.624, 443.309 214.496 M 125.601 222.303 C 122.961 224.233, 123.926 227.432, 127.264 227.817 C 130.365 228.175, 131.966 225.755, 130.338 223.174 C 128.963 220.994, 127.706 220.763, 125.601 222.303 M 139.200 222.200 C 136.897 224.503, 138.503 229, 141.629 229 C 143.032 229, 146 226.284, 146 225 C 146 223.716, 143.032 221, 141.629 221 C 140.953 221, 139.860 221.540, 139.200 222.200 M 153.571 222.571 C 151.624 224.518, 151.598 225.422, 153.445 226.954 C 155.786 228.897, 159.452 227.842, 159.837 225.113 C 160.379 221.281, 156.454 219.689, 153.571 222.571 M 510.655 245.829 C 509.745 246.835, 509 248.115, 509 248.674 C 509 249.979, 512.322 253, 513.757 253 C 515.295 253, 518 250.131, 518 248.500 C 518 246.787, 515.265 244, 513.584 244 C 512.883 244, 511.565 244.823, 510.655 245.829 M 528.544 245.344 C 526.216 247.047, 527.111 251.534, 529.924 252.270 C 532.199 252.865, 536 250.506, 536 248.500 C 536 247.239, 532.379 244, 530.969 244 C 530.646 244, 529.555 244.605, 528.544 245.344 M 561.250 245.086 C 556.976 246.700, 558.955 252.361, 563.609 251.830 C 565.899 251.569, 566.564 250.942, 566.810 248.817 C 567.185 245.573, 564.583 243.827, 561.250 245.086 M 544.105 246.803 C 542.568 249.676, 544.847 252.257, 548.549 251.836 C 551.087 251.547, 551.500 251.080, 551.500 248.500 C 551.500 245.859, 551.119 245.463, 548.316 245.192 C 545.994 244.967, 544.855 245.402, 544.105 246.803 M 277.500 255.713 C 270.030 256.302, 260.009 258.176, 259.445 259.090 C 259.135 259.590, 259.232 260, 259.659 260 C 260.087 260, 269.676 261.118, 280.968 262.485 C 292.261 263.851, 303.402 265.191, 305.727 265.462 C 310.268 265.992, 311.428 265.020, 312.148 260.082 C 312.434 258.117, 311.937 257.507, 309.500 256.831 C 306.327 255.950, 284.268 255.180, 277.500 255.713 M 321.975 262.565 C 321.439 263.976, 321 265.493, 321 265.936 C 321 266.823, 335.191 268.474, 356 270.006 C 363.425 270.553, 371.300 271.216, 373.500 271.479 C 377.206 271.923, 377.279 271.887, 374.500 270.988 C 369.732 269.447, 327.115 260, 324.928 260 C 323.725 260, 322.568 261.005, 321.975 262.565 M 523.250 286.662 C 522.563 286.940, 522 287.981, 522 288.976 C 522 292.067, 527.785 293.169, 530 290.500 C 532.429 287.573, 527.682 284.874, 523.250 286.662 M 484 289 C 484 290.993, 484.446 291.042, 500.250 290.775 C 513.906 290.544, 516.500 290.261, 516.500 289 C 516.500 287.739, 513.906 287.456, 500.250 287.225 C 484.446 286.958, 484 287.007, 484 289 M 536.500 288 C 534.889 290.607, 537.972 291, 560.059 291 C 582.333 291, 583 290.942, 583 289 C 583 287.058, 582.333 287, 560.059 287 C 545.844 287, 536.883 287.380, 536.500 288 M 194 308.888 C 194 310.532, 197.674 313, 200.120 313 C 202.365 313, 200.305 309.740, 197.250 308.459 C 194.286 307.216, 194 307.254, 194 308.888 M 203.919 312.598 C 202.476 314.336, 202.234 314.127, 208.746 316.763 L 213.992 318.886 212.527 316.051 C 210.684 312.489, 205.677 310.480, 203.919 312.598 M 215.446 317.087 C 214.502 318.615, 215.644 319.373, 222.603 321.838 C 230.022 324.466, 230 324.466, 230 322.072 C 230 320.649, 228.548 319.601, 224.462 318.072 C 218.192 315.726, 216.408 315.531, 215.446 317.087 M 233.352 323.524 C 233.013 324.410, 233.132 325.486, 233.617 325.916 C 234.435 326.640, 255.286 334, 256.519 334 C 256.822 334, 256.588 333.099, 255.999 331.999 C 254.389 328.989, 243.525 323.982, 238.267 323.826 C 237.845 323.813, 236.706 323.378, 235.735 322.858 C 234.429 322.159, 233.810 322.332, 233.352 323.524 M 200.108 325.442 C 201.100 326.433, 225.197 336.382, 236.443 340.443 C 249.767 345.254, 287.959 356.641, 312 362.969 C 320.525 365.213, 327.950 367.253, 328.500 367.502 C 329.050 367.752, 325.900 367.710, 321.500 367.410 C 311.202 366.708, 278.572 360.880, 260.136 356.451 C 252.236 354.553, 245.486 353.032, 245.136 353.070 C 242.142 353.402, 273.087 362.556, 290.870 366.600 C 310.414 371.044, 363.235 379.284, 389.500 381.987 C 414.945 384.606, 439.301 388.123, 438.285 389.032 C 436.896 390.275, 411.673 399.707, 403.926 401.880 C 393.183 404.895, 377.999 406.990, 367 406.976 C 354.878 406.960, 342.841 405.229, 314.364 399.406 C 293.517 395.144, 290.221 394.727, 277 394.678 C 258.974 394.612, 252.851 395.579, 221 403.522 C 187.172 411.958, 179.424 413.598, 161.578 416.101 C 144.802 418.453, 116.144 419.124, 95.631 417.644 C 85.831 416.937, 83.841 417.023, 84.213 418.139 C 85.520 422.061, 116.095 424.841, 139.689 423.182 C 162.832 421.555, 176.929 419.026, 218 409.134 C 249.767 401.482, 256.735 400.484, 277.500 400.607 C 293.970 400.704, 297.157 401.034, 315 404.493 C 346.739 410.645, 350.570 411.126, 368.500 411.218 C 393.170 411.343, 404.163 409.012, 447.500 394.464 C 461.250 389.849, 475.875 385.347, 480 384.460 C 490.185 382.271, 516.975 381.421, 529.440 382.891 C 540.363 384.180, 559.347 388.520, 570.979 392.389 C 575.092 393.757, 578.644 394.689, 578.872 394.461 C 580.396 392.938, 546.949 380.803, 533.292 377.924 C 520.911 375.315, 500.414 373.705, 490 374.524 C 480.875 375.243, 462.371 379.612, 454.953 382.800 L 450.407 384.755 427.953 380.916 C 399.527 376.056, 395.056 375.114, 310 356.051 C 275.926 348.414, 237.244 337.790, 214.910 329.934 C 201.348 325.163, 199.168 324.501, 200.108 325.442 M 100.614 338.529 C 98.921 340.222, 99.383 342.549, 101.577 343.391 C 104.886 344.661, 108.056 340.977, 105.895 338.373 C 104.404 336.577, 102.510 336.633, 100.614 338.529 M 114.200 338.200 C 112.717 339.683, 112.637 342.658, 114.057 343.535 C 114.638 343.894, 116.213 343.912, 117.557 343.575 C 121.646 342.549, 120.431 337, 116.118 337 C 115.723 337, 114.860 337.540, 114.200 338.200 M 128.040 338.452 C 126.157 340.721, 127.184 343.500, 129.905 343.500 C 133.059 343.500, 134.846 340.724, 133.070 338.584 C 131.432 336.610, 129.608 336.562, 128.040 338.452 M 447.832 351.013 C 436.281 352.118, 433 352.903, 433 354.561 C 433 355.793, 435.107 355.988, 445.998 355.766 L 458.997 355.500 458.998 352.750 C 459 350.744, 458.527 350.038, 457.250 350.140 C 456.288 350.217, 452.049 350.610, 447.832 351.013 M 470.999 352.613 L 470.997 355.500 485.245 355.170 C 493.082 354.989, 499.682 354.651, 499.913 354.420 C 501.453 352.880, 494.591 351.456, 480.750 350.441 L 471 349.726 470.999 352.613 M 596.500 373.468 C 588.606 374.921, 580.621 376.981, 581.149 377.429 C 581.342 377.593, 586.506 377.979, 592.624 378.287 C 603.721 378.846, 603.751 378.842, 604.874 376.377 C 607.106 371.479, 607.177 371.504, 596.500 373.468 M 300 378.139 C 323.013 382.865, 340.518 385.988, 343.681 385.930 C 347.121 385.866, 352.928 384.267, 350.500 384.052 C 349.950 384.003, 345.675 383.284, 341 382.455 C 332.107 380.877, 299.593 376.926, 297 377.109 C 296.175 377.167, 297.525 377.630, 300 378.139 M 198.182 389.058 C 170.221 394.902, 157.680 396.297, 132.500 396.359 C 120.400 396.389, 108.700 396.087, 106.500 395.686 C 99.974 394.499, 104.598 396.590, 114.017 399.086 C 131.421 403.696, 161.211 401.592, 192.878 393.516 C 203.044 390.923, 220.543 385.123, 218 385.190 C 217.175 385.211, 208.257 386.952, 198.182 389.058 M 502.500 399.656 C 482.291 402.059, 469.625 405.118, 445.412 413.443 C 435.206 416.952, 423.235 420.168, 412.673 422.237 C 403.515 424.032, 396.017 425.901, 396.011 426.392 C 395.996 427.603, 418.604 426.217, 428 424.431 C 432.125 423.647, 444.471 420.533, 455.435 417.512 C 494.341 406.789, 510.696 404.279, 535 405.301 C 546.487 405.784, 566.702 408.491, 573.523 410.459 C 574.610 410.773, 573.925 410.288, 572 409.383 C 565.532 406.340, 548.587 401.893, 538 400.460 C 528.472 399.171, 510.086 398.754, 502.500 399.656 M 257.500 416.421 C 246.925 418.002, 231.370 421.407, 225 423.534 L 220.500 425.037 224.500 424.549 C 226.700 424.280, 233 423.505, 238.500 422.826 C 244.197 422.122, 260.763 421.572, 277 421.546 C 300.338 421.508, 307.219 421.824, 314.992 423.292 C 320.213 424.277, 325.613 425.294, 326.992 425.552 C 332.308 426.547, 314.993 420.777, 305.500 418.390 C 293.017 415.253, 271.277 414.361, 257.500 416.421 M 514.500 421.682 C 510.550 422.185, 485.910 427.263, 486.242 427.506 C 486.384 427.610, 495.950 427.221, 507.500 426.642 C 532.555 425.385, 550.896 425.245, 564.500 426.206 C 576.189 427.032, 574.752 426.006, 560.013 423.003 C 552.278 421.426, 546.706 421.032, 533.843 421.150 C 524.854 421.232, 516.150 421.472, 514.500 421.682 M 316.530 457.473 C 318.429 461.765, 319 464.763, 319 470.435 L 319 477.812 313.922 481.460 C 308.351 485.463, 308.390 487.268, 314.077 488.517 C 315.694 488.872, 317.463 489.996, 318.008 491.016 C 318.554 492.035, 318.990 497.511, 318.978 503.184 C 318.961 511.292, 318.533 514.433, 316.978 517.859 C 315.890 520.257, 315 522.394, 315 522.609 C 315 523.531, 352.512 522.900, 356.436 521.912 C 364.780 519.811, 371.355 511.984, 372.637 502.628 C 373.440 496.774, 371.634 491.764, 367.373 488.023 L 363.868 484.945 366.434 481.896 C 373.500 473.499, 370.087 460.152, 359.447 454.570 C 355.891 452.705, 353.447 452.470, 334.780 452.194 L 314.061 451.888 316.530 457.473 M 400.591 453.573 C 387.254 458.460, 382.402 469.647, 383.158 493.763 C 383.579 507.182, 385.252 511.927, 392.020 518.901 C 398.713 525.798, 403.050 527.494, 414 527.497 C 422.620 527.500, 423.944 527.239, 428.292 524.683 C 433.932 521.368, 438.239 515.806, 440.547 508.859 C 441.884 504.832, 442.138 500.819, 441.853 488.181 C 441.520 473.377, 441.343 472.180, 438.686 466.770 C 435.449 460.177, 430.541 455.713, 424.128 453.528 C 418.535 451.622, 405.849 451.647, 400.591 453.573 M 237.752 453.582 C 237.432 453.901, 237.807 455.687, 238.585 457.549 C 239.699 460.216, 239.995 467.264, 239.978 490.718 C 239.958 518.316, 239.810 520.823, 237.960 524.899 C 236.863 527.318, 236.085 529.388, 236.232 529.499 C 236.380 529.610, 241.675 529.115, 248 528.399 C 254.325 527.683, 260.072 527.076, 260.770 527.049 C 261.678 527.014, 261.464 525.871, 260.020 523.040 C 258.354 519.774, 258 517.143, 258 508.040 L 258 497 261.418 497 C 263.298 497, 265.473 496.756, 266.251 496.457 C 267.243 496.076, 268.645 498.087, 270.955 503.207 C 272.765 507.218, 275.782 513.763, 277.660 517.750 L 281.075 525 285.288 524.993 C 287.604 524.989, 292.516 524.701, 296.202 524.353 L 302.903 523.720 299.835 519.260 C 296.591 514.546, 287 494.889, 287 492.956 C 287 492.330, 288.562 489.993, 290.470 487.763 C 294.952 482.528, 296.326 478.183, 295.800 470.909 C 295.287 463.816, 291.762 458.715, 284.980 455.250 C 280.824 453.127, 279.387 453, 259.455 453 C 247.838 453, 238.072 453.262, 237.752 453.582 M 179.549 455.217 C 179.322 455.923, 174.783 471.967, 169.462 490.871 C 159.527 526.170, 157.342 532.698, 153.233 539.344 C 151.925 541.459, 151.078 543.412, 151.350 543.684 C 151.817 544.150, 176.712 539.207, 178.190 538.354 C 178.569 538.135, 178.233 536.408, 177.442 534.516 C 175.481 529.822, 177.182 521.296, 180.347 519.959 C 182.257 519.152, 197.936 516, 200.040 516 C 200.490 516, 201.373 518.481, 202.003 521.513 C 203.051 526.560, 202.962 527.325, 200.960 530.566 C 199.756 532.512, 199.040 534.374, 199.369 534.702 C 199.871 535.204, 214.678 533.224, 224.227 531.378 L 226.954 530.851 224.014 525.027 C 221.248 519.548, 218.582 511.085, 206.996 471 L 202.227 454.500 191.095 454.217 C 182.718 454.004, 179.860 454.252, 179.549 455.217 M 455 455.292 C 455 455.619, 456.012 457.599, 457.250 459.693 C 459.389 463.312, 459.526 464.808, 460.024 490 C 460.520 515.097, 460.673 516.779, 462.910 521.779 C 469.098 535.611, 487.003 543.173, 502.568 538.529 C 508.992 536.612, 513.858 532.492, 517.534 525.856 L 520.500 520.500 521 492.500 C 521.479 465.651, 521.592 464.351, 523.750 460.882 C 524.987 458.892, 526 456.980, 526 456.632 C 526 456.284, 519.700 456, 512 456 C 503.565 456, 498 456.388, 498 456.976 C 498 457.513, 498.898 459.425, 499.996 461.226 C 501.853 464.272, 501.993 466.280, 501.996 490.027 C 502 518.293, 501.875 518.901, 495.505 521.562 C 491.396 523.279, 486.300 522.012, 482.944 518.441 C 480.631 515.979, 480.504 515.085, 479.712 495.689 C 478.727 471.586, 479.091 465.702, 481.909 460.178 L 484.041 456 479.270 455.995 C 476.647 455.992, 470.113 455.699, 464.750 455.344 C 459.387 454.989, 455 454.966, 455 455.292 M 79.750 457.775 C 71.088 457.927, 64 458.228, 64 458.444 C 64 458.660, 65.575 462.124, 67.500 466.140 L 71 473.444 70.943 487.972 L 70.886 502.500 65.882 506.313 C 59.352 511.289, 59.469 513.781, 66.331 515.906 L 71.162 517.401 70.811 533.951 C 70.470 550.005, 70.365 550.717, 67.275 557.750 C 65.523 561.737, 64.262 565, 64.473 565 C 65.971 565, 94.650 557.659, 95.219 557.130 C 95.615 556.762, 94.828 554.063, 93.469 551.131 C 91.219 546.273, 91 544.574, 91 531.939 L 91 518.077 95.088 516.976 C 98.902 515.949, 114.580 513.004, 116.250 513.001 C 116.662 513.001, 116.989 518.962, 116.976 526.250 C 116.955 538.026, 116.678 540.168, 114.481 545.500 C 111.446 552.866, 111.431 553.358, 114.250 552.739 C 115.487 552.467, 121.900 551.058, 128.500 549.608 C 135.100 548.158, 141.047 546.774, 141.715 546.531 C 142.586 546.215, 142.232 544.513, 140.465 540.516 C 138.008 534.961, 138 534.836, 138.010 502.221 L 138.020 469.500 140.510 464.151 C 141.879 461.209, 143 458.396, 143 457.901 C 143 457.405, 136.027 457, 127.500 457 C 118.975 457, 112 457.394, 112 457.876 C 112 458.357, 113.125 461.295, 114.500 464.404 C 116.730 469.447, 117 471.401, 117 482.509 C 117 494.605, 116.935 494.977, 114.750 495.473 C 112.849 495.905, 92.293 499, 91.324 499 C 91.146 499, 91 492.418, 91 484.374 C 91 470.139, 91.079 469.591, 93.966 463.911 C 95.597 460.702, 96.609 457.946, 96.216 457.788 C 95.822 457.629, 88.412 457.624, 79.750 457.775 M 539 457.362 C 539 457.561, 540.350 460.701, 542 464.340 C 544.839 470.600, 545 471.653, 545 483.916 L 545 496.875 540.058 499.565 C 532.299 503.788, 532.506 506.573, 540.841 510.146 L 545.210 512.019 544.834 523.759 C 544.483 534.697, 544.233 535.937, 541.171 541.893 C 539.364 545.409, 538.249 548.602, 538.693 548.990 C 539.333 549.549, 565.205 555, 567.217 555 C 567.500 555, 566.892 552.455, 565.866 549.345 C 564.410 544.933, 564 540.673, 564 529.968 L 564 516.246 568.750 516.702 C 575.502 517.350, 575.666 517.448, 577.032 521.680 C 578.968 527.679, 587.493 549.052, 590.399 555.195 L 593.031 560.759 605.243 563.819 C 611.960 565.502, 617.629 566.705, 617.841 566.492 C 618.053 566.280, 615.757 560.795, 612.737 554.303 C 606.497 540.887, 596 515.763, 596 514.242 C 596 513.685, 597.204 512.441, 598.676 511.477 C 607.836 505.475, 612.521 494.226, 610.874 482.187 C 609.777 474.167, 607.198 469.224, 601.486 464.197 C 593.921 457.538, 591.070 457, 563.322 457 C 549.945 457, 539 457.163, 539 457.362 M 337.250 465.662 C 336.432 465.992, 336 468.386, 336 472.583 L 336 479 342.045 479 C 347.131 479, 348.481 478.610, 350.545 476.545 C 351.895 475.195, 353 473.150, 353 472 C 353 470.850, 351.895 468.805, 350.545 467.455 C 348.589 465.498, 347.117 465.016, 343.295 465.079 C 340.658 465.122, 337.938 465.385, 337.250 465.662 M 263.250 466.737 L 258 467.105 258 475.665 L 258 484.226 264.968 483.832 C 274.035 483.320, 277.369 481.068, 277.807 475.162 C 278.054 471.832, 277.623 470.532, 275.602 468.511 C 274.171 467.080, 272.104 466.080, 270.795 466.185 C 269.533 466.287, 266.137 466.535, 263.250 466.737 M 406.304 467.956 C 401.697 470.765, 400.729 475.112, 401.147 491.110 C 401.547 506.409, 402.536 509.072, 408.780 511.681 C 411.666 512.887, 413.154 512.971, 416.092 512.091 C 422.397 510.202, 423 508.252, 423 489.758 C 423 471.918, 422.587 470.389, 416.989 467.494 C 413.112 465.489, 410.139 465.618, 406.304 467.956 M 564 486.718 L 564 500.731 571.095 501.239 C 584.892 502.226, 589.104 499.704, 589.804 490.037 C 590.669 478.068, 586.769 474.179, 573.005 473.287 L 564 472.704 564 486.718 M 189.676 480 C 188.981 481.791, 183 502.609, 183 503.234 C 183 503.725, 195.154 502.179, 195.717 501.616 C 195.917 501.417, 194.770 496.134, 193.169 489.877 C 191.567 483.619, 189.995 479.175, 189.676 480 M 336 500.500 L 336 509 342.944 509 C 348.721 509, 350.318 508.622, 352.445 506.750 C 356.360 503.305, 356.749 499.043, 353.500 495.182 C 350.934 492.133, 350.512 492, 343.411 492 L 336 492 336 500.500 M 322 548.431 C 310.885 551.524, 302.326 558.616, 296.684 569.410 C 293.643 575.226, 293.500 576.017, 293.500 587 C 293.500 597.853, 293.679 598.878, 296.686 605.225 C 302.435 617.362, 314.842 626.406, 327.542 627.716 C 332.590 628.238, 333.166 628.109, 332.852 626.534 C 332.598 625.258, 330.423 624.241, 325.015 622.869 C 320.642 621.760, 315.347 619.522, 312.280 617.485 C 309.393 615.568, 306.536 614, 305.932 614 C 305.328 614, 305.012 613.465, 305.230 612.811 C 305.448 612.157, 304.125 609.128, 302.290 606.081 C 298.101 599.125, 296.691 594.128, 296.765 586.500 C 296.835 579.299, 298.557 574.228, 303.670 566.159 C 306.900 561.062, 308.558 559.566, 314.258 556.606 C 317.975 554.676, 323.712 552.567, 327.008 551.919 C 331.774 550.981, 333 550.357, 333 548.870 C 333 546.630, 329.039 546.472, 322 548.431 M 335 548.713 C 335 550.272, 336.093 550.927, 340.250 551.859 C 349.790 553.999, 363.234 561.799, 362.285 564.644 C 362.078 565.267, 363.047 567.455, 364.440 569.506 C 366.938 573.188, 368.984 578.888, 368.994 582.200 C 368.997 583.135, 369.766 584.329, 370.703 584.854 C 371.984 585.571, 372.134 586.140, 371.310 587.153 C 370.708 587.894, 369.482 591.388, 368.586 594.917 C 364.620 610.530, 353.602 621.281, 339.208 623.583 C 335.882 624.115, 335 624.677, 335 626.267 C 335 628.097, 335.458 628.224, 340.077 627.677 C 351.554 626.318, 364.564 616.562, 369.616 605.528 C 372.188 599.911, 374.167 588.433, 373.396 583.602 C 370.156 563.286, 357.885 550.277, 339.250 547.400 C 335.467 546.816, 335 546.961, 335 548.713 M 322 556.168 C 320.075 556.712, 318.098 557.546, 317.606 558.022 C 316.522 559.072, 327.056 577.072, 328.500 576.638 C 329.061 576.469, 329.624 571.659, 329.784 565.669 C 330.103 553.686, 330.232 553.844, 322 556.168 M 337 565.889 C 337 574.122, 337.324 577, 338.252 577 C 339.239 577, 348.411 563.439, 349.814 559.908 C 350.255 558.797, 345.138 556.304, 340.715 555.474 L 337 554.777 337 565.889 M 303.290 574.165 C 302.158 575.546, 299.626 583.972, 300.184 584.501 C 300.358 584.665, 305.563 584.556, 311.750 584.258 C 319.867 583.868, 323 583.365, 323 582.452 C 323 581.757, 320.797 579.605, 318.105 577.671 C 312.582 573.703, 305.119 571.937, 303.290 574.165 M 353.395 575.490 C 348.124 578.117, 344 581.430, 344 583.039 C 344 583.568, 345.913 584.003, 348.250 584.007 C 350.587 584.011, 355.538 584.301, 359.250 584.652 C 365.665 585.258, 366 585.184, 366 583.165 C 366 581.996, 365.276 579.231, 364.391 577.020 C 362.451 572.170, 360.581 571.909, 353.395 575.490 M 330.362 585.500 C 329.486 587.781, 330.711 590, 332.846 590 C 335.326 590, 337.204 587.695, 336.410 585.627 C 335.626 583.583, 331.133 583.489, 330.362 585.500 M 300.530 592.289 C 300.900 594.055, 302.044 597.439, 303.072 599.810 L 304.940 604.119 309.720 601.374 C 317.145 597.110, 323 592.991, 323 592.032 C 323 591.552, 319.962 590.891, 316.250 590.563 C 312.538 590.235, 307.331 589.766, 304.679 589.522 L 299.858 589.077 300.530 592.289 M 345.198 591.927 C 344.891 592.726, 345.121 593.540, 345.709 593.736 C 346.298 593.933, 349.957 596.282, 353.841 598.958 C 359.242 602.679, 361.144 603.531, 361.930 602.585 C 363.568 600.611, 366 594.258, 366 591.952 C 366 589.921, 365.612 589.853, 355.878 590.157 C 348.163 590.399, 345.623 590.820, 345.198 591.927 M 322.221 606.295 C 317.544 613.333, 316.387 615.763, 317.302 616.619 C 318.888 618.099, 324.704 620, 327.649 620 C 329.974 620, 330 619.878, 330 609.059 C 330 603.041, 329.626 597.887, 329.169 597.604 C 328.712 597.322, 325.586 601.233, 322.221 606.295 M 337.639 597.694 C 337.288 598.046, 337 603.482, 337 609.775 L 337 621.217 339.750 620.535 C 341.262 620.160, 344.468 618.987, 346.873 617.928 C 350.876 616.167, 351.130 615.845, 349.873 614.128 C 344.455 606.728, 340 599.954, 340 599.114 C 340 597.808, 338.455 596.879, 337.639 597.694" stroke="none" fill="#a9bcae" fill-rule="evenodd"/></svg>