<svg xmlns="http://www.w3.org/2000/svg" width="630" height="440" viewBox="0 0 630 440" version="1.1"><path d="M 292 36.625 C 272.016 39.075, 253.883 43.065, 237 48.729 C 163.290 73.455, 100.163 129.731, 69.371 198.168 C 56.737 226.247, 48.086 259.009, 46.047 286.500 C 44.896 302.008, 44.682 326.713, 45.630 334.602 L 46.243 339.704 58.372 340.338 C 77.455 341.336, 95.663 345.046, 110.600 350.980 C 119.268 354.423, 122.762 356.571, 121.594 357.740 C 120.268 359.067, 105.004 359.222, 90 358.062 C 82.025 357.445, 69.921 356.657, 63.102 356.311 L 50.703 355.682 51.422 358.591 C 51.818 360.191, 52.449 361.816, 52.824 362.203 C 54.249 363.671, 95.213 365.239, 118 364.697 C 144.477 364.068, 175.617 360.083, 179.703 356.800 C 181.321 355.500, 178.539 348.450, 171.437 335.847 C 160.723 316.836, 153.957 309.496, 118.797 278.740 C 91.734 255.067, 82.362 246.305, 83.203 245.463 C 84.370 244.296, 94.433 250.237, 126.188 270.838 C 134.817 276.435, 142.524 281.264, 143.315 281.567 C 144.261 281.931, 144.973 281.244, 145.396 279.560 C 146.435 275.419, 151.217 276.234, 171.868 284.071 C 182.116 287.959, 200.543 294.772, 212.819 299.209 L 235.137 307.277 241.319 313.644 C 246.998 319.494, 248.230 320.246, 256.500 322.917 C 261.450 324.516, 267.180 326.137, 269.234 326.520 C 272.688 327.164, 273.050 327.003, 274.075 324.358 C 274.684 322.786, 276.556 315.506, 278.235 308.179 C 280.840 296.810, 281.083 294.661, 279.894 293.507 C 275.864 289.600, 230.244 288.940, 217.782 292.609 C 216.497 292.987, 215.505 291.903, 213.847 288.307 C 210.778 281.651, 196.346 267.412, 187.206 262.022 C 175.636 255.198, 168.110 252.872, 157.523 252.846 C 150.381 252.830, 147.492 253.278, 143.667 254.996 C 141.009 256.190, 138.660 256.994, 138.448 256.782 C 137.929 256.262, 153.232 236.610, 162.620 225.740 C 179.574 206.110, 215.620 175.562, 236.882 162.804 C 256.125 151.258, 280.498 121.593, 284.543 104.794 C 285.298 101.660, 284.785 101.464, 273.555 100.583 C 269.364 100.255, 266.017 99.446, 265.115 98.543 C 263.244 96.673, 263.855 96.054, 268.671 94.936 C 274.732 93.530, 286.380 93.843, 309.682 96.040 C 321.583 97.162, 331.644 97.724, 332.040 97.290 C 332.436 96.855, 334.500 89.862, 336.625 81.750 L 340.489 67 343.638 67 C 345.595 67, 347.017 67.602, 347.397 68.593 C 348.088 70.392, 346.930 78.400, 344.139 91.142 L 342.245 99.784 345.873 100.339 C 347.868 100.644, 356.250 101.649, 364.500 102.571 C 381.498 104.472, 384.300 105.224, 383.801 107.753 C 383.483 109.364, 381.554 109.487, 359.010 109.338 C 344.772 109.244, 335.211 109.539, 336.114 110.044 C 338.618 111.445, 355.013 116, 357.553 116 C 358.834 116, 360.083 116.338, 360.330 116.750 C 360.576 117.162, 360.326 120.425, 359.775 124 C 358.816 130.219, 359.771 142.635, 361.569 147.320 C 362.368 149.401, 363.070 149.520, 343.642 144.282 C 336.571 142.375, 330.443 141.194, 330.025 141.658 C 329.106 142.677, 326 151.869, 326 153.570 C 326 155.429, 328.633 155.784, 355 157.478 C 384.282 159.358, 384 159.310, 384 162.447 C 384 164.621, 383.456 164.924, 378.430 165.552 C 373.593 166.156, 352.333 165.232, 329.500 163.425 C 324.931 163.064, 323.021 163.199, 324 163.814 C 326.630 165.467, 348.149 170.166, 355.709 170.737 L 363 171.289 363.008 177.894 C 363.018 187.323, 364.719 196.654, 367.567 202.902 C 368.921 205.874, 369.910 208.415, 369.764 208.550 C 369.619 208.685, 366.800 207.940, 363.500 206.895 C 360.200 205.850, 348.309 202.682, 337.076 199.854 L 316.651 194.713 314.826 196.967 C 313.015 199.203, 312.270 205, 313.793 205 C 314.230 205, 321.092 205.894, 329.043 206.988 C 336.995 208.081, 352.238 209.867, 362.918 210.956 C 373.599 212.046, 382.771 213.371, 383.301 213.901 C 383.832 214.432, 383.969 215.638, 383.607 216.581 C 383.022 218.107, 381.841 218.225, 372.973 217.644 C 367.486 217.284, 353.660 215.898, 342.249 214.564 C 330.837 213.230, 318.575 211.884, 315 211.574 L 308.500 211.008 312.500 212.566 C 316.882 214.272, 350.023 222.539, 356.614 223.569 L 360.728 224.212 360.637 235.856 C 360.553 246.595, 361.585 253.309, 363.863 256.839 C 364.346 257.586, 368.469 258.730, 373.200 259.428 C 383.117 260.893, 384 261.313, 384 264.559 C 384 266.892, 383.717 267, 377.623 267 C 374.115 267, 354.541 265.200, 334.124 263 C 313.707 260.800, 296.214 259.041, 295.251 259.091 C 289.839 259.373, 326.837 268.738, 339.789 270.365 L 349.079 271.532 349.452 284.016 C 349.668 291.247, 350.488 298.814, 351.400 302 C 352.267 305.025, 352.982 307.795, 352.988 308.156 C 352.995 308.517, 347.262 307.260, 340.250 305.362 C 322.908 300.668, 298.098 295.017, 294.797 295.007 C 291.626 294.999, 291.419 295.572, 287.412 315.441 C 285.004 327.381, 284.930 328.475, 286.453 329.589 C 288.165 330.841, 294.908 332.426, 295.596 331.737 C 295.811 331.522, 296.962 325.081, 298.154 317.423 C 299.345 309.765, 300.481 303.305, 300.677 303.067 C 300.873 302.828, 301.484 303.084, 302.035 303.635 C 302.704 304.304, 302.490 309.194, 301.391 318.357 C 300.485 325.904, 299.988 332.321, 300.286 332.619 C 301.331 333.664, 316.092 337.061, 317.041 336.475 C 317.579 336.142, 318 329.784, 318 322 C 318 308.112, 319.176 302.974, 320.367 311.663 C 320.715 314.202, 321.026 319.254, 321.058 322.890 C 321.089 326.525, 321.434 331.299, 321.824 333.499 C 322.522 337.434, 322.641 337.528, 329.253 339.430 C 332.948 340.492, 336.233 341.100, 336.552 340.781 C 336.871 340.462, 336.652 335.899, 336.066 330.640 C 335.480 325.381, 335.014 318.474, 335.032 315.289 C 335.059 310.378, 335.257 309.755, 336.341 311.180 C 337.044 312.104, 338.170 318.745, 338.843 325.937 C 339.517 333.129, 340.317 339.662, 340.621 340.454 C 340.927 341.253, 343.695 342.400, 346.837 343.031 C 349.952 343.656, 353.579 344.420, 354.898 344.729 C 357.266 345.284, 357.287 345.222, 356.570 339.896 C 353.659 318.254, 353.278 314.406, 353.975 313.669 C 354.897 312.695, 356.345 318.604, 358.589 332.500 C 359.477 338, 360.797 343.441, 361.521 344.592 C 362.579 346.271, 365.466 347.207, 376.169 349.342 C 383.501 350.805, 389.837 352.001, 390.250 352.001 C 390.663 352, 391 320.370, 391 281.710 C 391 221.225, 390.782 210.589, 389.439 205.460 C 388.581 202.182, 387.535 196.676, 387.115 193.225 C 386.380 187.184, 386.438 186.932, 388.676 186.475 C 389.954 186.214, 392.125 185.766, 393.500 185.481 L 396 184.962 396.117 152.231 C 396.182 134.229, 396.520 115, 396.867 109.500 C 397.447 100.330, 397.675 99.475, 399.607 99.199 C 401.421 98.940, 401.804 99.550, 402.357 103.589 C 402.711 106.168, 403 112.941, 403 118.640 L 403 129 413.250 129.017 C 426.758 129.040, 433.527 130.594, 452.593 138.050 C 476.660 147.461, 479.917 148.219, 494.612 147.830 L 507.070 147.500 503.785 150.282 C 497.180 155.875, 491.081 158.310, 482.500 158.779 C 475.046 159.186, 473.568 158.901, 460.840 154.601 C 453.327 152.063, 445.199 149.715, 442.779 149.383 C 436.714 148.552, 428.575 150.399, 414.750 155.744 L 403 160.287 403 171.175 C 403 179.060, 403.351 182.197, 404.271 182.551 C 404.971 182.819, 416.462 180.780, 429.808 178.019 C 443.154 175.259, 454.902 173, 455.914 173 C 457.508 173, 457.692 173.637, 457.292 177.750 C 456.395 186.971, 455.309 188.888, 449.542 191.439 C 446.646 192.720, 443.539 194.820, 442.638 196.106 C 439.321 200.842, 441.556 213.537, 446.710 219.232 C 447.590 220.204, 448.060 221, 447.754 221 C 444.382 221, 404.930 229.500, 403.250 230.588 C 401.456 231.751, 401 232.975, 401 236.631 C 401 241.135, 401.049 241.204, 403.750 240.524 C 405.262 240.142, 416.348 237.848, 428.385 235.426 C 440.422 233.003, 450.884 230.511, 451.635 229.888 C 452.386 229.265, 453 228, 453 227.078 C 453 224.913, 454.932 223, 457.117 223 C 458.366 223, 459.124 224.353, 459.899 227.965 C 461.084 233.488, 460.627 235.697, 458.158 236.388 C 457.246 236.643, 447.725 239.022, 437 241.676 L 417.500 246.500 426.250 246.789 L 435 247.078 434.985 250.289 C 434.976 252.055, 434.639 253.988, 434.235 254.585 C 433.831 255.182, 429.998 256.261, 425.718 256.982 C 421.438 257.704, 417.699 258.678, 417.409 259.147 C 417.119 259.616, 421.658 260, 427.496 260 L 438.110 260 437.805 264.727 C 437.465 269.994, 438.523 269.453, 424.658 271.452 C 417.446 272.492, 419.909 273.438, 431.288 274 L 441.420 274.500 442.703 278.945 C 444.267 284.364, 444.054 284.539, 434.779 285.453 C 430.938 285.832, 427.129 286.397, 426.314 286.710 C 423.219 287.898, 427.521 288.969, 435.500 288.998 C 439.900 289.014, 444.476 289.289, 445.668 289.609 C 447.918 290.212, 450.630 295.172, 449.611 296.821 C 449.291 297.339, 445.647 298.079, 441.514 298.466 C 437.381 298.854, 434 299.582, 434 300.085 C 434 300.588, 438.199 301, 443.330 301 L 452.661 301 456.039 305.750 C 457.898 308.363, 461.867 313.088, 464.861 316.250 L 470.304 322 445.843 322 C 424.249 322, 420.391 322.248, 412.940 324.118 C 408.298 325.283, 403.712 326.649, 402.750 327.153 C 401.067 328.035, 400.211 333.022, 401.750 332.979 C 402.163 332.968, 407.900 332.058, 414.500 330.957 C 439.002 326.870, 461.328 327.326, 486.297 332.425 C 498.376 334.891, 501.962 336.438, 500.042 338.358 C 499.469 338.931, 499 342.198, 499 345.617 L 499 351.834 503.750 352.850 C 521.294 356.600, 520.673 356.604, 533.206 352.656 C 548.787 347.749, 563.316 344.328, 576.335 342.500 C 582.294 341.664, 587.972 340.550, 588.952 340.026 C 592.134 338.323, 593.700 315.026, 592.048 293.943 C 587.573 236.791, 567.865 186.041, 533.045 142 C 522.911 129.182, 500.999 107.279, 487.542 96.516 C 455.779 71.109, 419.465 53.081, 381 43.621 C 358.143 38, 348.433 36.858, 320.500 36.508 C 306.750 36.336, 293.925 36.389, 292 36.625 M 211.639 90.694 C 210.686 91.647, 210.867 94, 211.893 94 C 213.120 94, 214.105 91.183, 213.096 90.559 C 212.647 90.282, 211.991 90.342, 211.639 90.694 M 445.631 111.855 C 443.608 114.090, 444.354 116.598, 447.267 117.360 C 451.332 118.422, 453.433 114.576, 450.429 111.571 C 448.407 109.550, 447.678 109.593, 445.631 111.855 M 460.441 111.441 C 458.891 112.593, 458.722 113.247, 459.602 114.691 C 460.968 116.933, 464.980 117.638, 466.122 115.837 C 467.313 113.958, 467.216 113.358, 465.429 111.571 C 463.493 109.635, 462.894 109.620, 460.441 111.441 M 474.517 111.981 C 473.022 113.633, 472.940 114.223, 474.026 115.532 C 475.811 117.682, 480.381 117.035, 480.850 114.566 C 481.052 113.502, 480.408 112.040, 479.418 111.316 C 477.050 109.585, 476.635 109.641, 474.517 111.981 M 176.571 118.571 C 174.712 120.431, 174.696 120.564, 176.035 123.066 C 177.362 125.544, 179.218 125.522, 181.500 123 C 183.247 121.070, 183.247 120.930, 181.500 119 C 179.318 116.589, 178.615 116.528, 176.571 118.571 M 204.631 118.855 C 202.823 120.853, 203.277 123.509, 205.577 124.391 C 207.512 125.134, 209.719 124.176, 210.447 122.278 C 211.010 120.810, 208.522 117, 207 117 C 206.620 117, 205.554 117.835, 204.631 118.855 M 190.011 119.487 C 188.261 121.595, 189.506 124, 192.346 124 C 195.658 124, 197.674 121.517, 196 119.500 C 194.409 117.583, 191.596 117.577, 190.011 119.487 M 287.500 137.698 C 278.161 138.936, 264.399 144.761, 260.222 149.244 L 257.944 151.688 278.722 152.430 C 290.150 152.838, 303.100 153.510, 307.500 153.923 C 311.900 154.336, 315.631 154.579, 315.792 154.462 C 316.400 154.020, 320.145 139.812, 319.756 139.422 C 317.883 137.549, 297.026 136.434, 287.500 137.698 M 186.669 157.814 C 184.724 159.962, 186.102 162, 189.500 162 C 192.898 162, 194.276 159.962, 192.331 157.814 C 191.429 156.816, 190.155 156, 189.500 156 C 188.845 156, 187.571 156.816, 186.669 157.814 M 203.750 157.080 C 199.789 159.387, 203.929 164.179, 208 162 C 210.410 160.710, 210.512 159.655, 208.429 157.571 C 206.607 155.750, 206.121 155.699, 203.750 157.080 M 129.441 158.429 C 127.524 159.839, 127.525 159.867, 129.500 160.679 C 130.600 161.130, 137.125 161.500, 144 161.500 C 150.875 161.500, 157.400 161.130, 158.500 160.679 C 160.475 159.867, 160.476 159.839, 158.559 158.429 C 157.118 157.369, 153.363 157, 144 157 C 134.637 157, 130.882 157.369, 129.441 158.429 M 165.695 157.700 C 162.706 158.475, 164.388 160.442, 168.858 161.398 C 171.794 162.026, 173.870 161.924, 175.768 161.060 C 178.387 159.867, 178.414 159.776, 176.549 158.412 C 174.696 157.057, 169.492 156.716, 165.695 157.700 M 250.484 161.823 C 240.071 168.257, 223.798 193.550, 216.981 213.897 C 210.639 232.828, 211.006 267.370, 217.688 280.351 L 219.156 283.202 221.686 280.851 C 225.689 277.132, 232.630 266.961, 235.958 259.938 C 239.562 252.332, 239.148 251.624, 230.459 250.538 C 224.034 249.735, 221.493 247.816, 223.037 244.931 C 223.605 243.869, 224.903 243, 225.921 243 C 229.116 243, 239.527 230.761, 243.968 221.782 C 248.441 212.742, 249.356 208.261, 247 206.941 C 246.175 206.479, 243.363 205.826, 240.750 205.489 C 238.087 205.146, 236.002 204.355, 236.003 203.689 C 236.005 203.035, 238.744 199.350, 242.090 195.500 C 245.435 191.650, 249.263 186.652, 250.597 184.394 C 253.423 179.608, 257.708 167.783, 258.176 163.481 C 258.453 160.937, 258.134 160.460, 256 160.229 C 254.625 160.081, 252.143 160.798, 250.484 161.823 M 421.972 185.061 C 390.591 192.506, 392 191.946, 392 196.975 C 392 199.189, 392.372 201, 392.828 201 C 393.283 201, 396.347 199.906, 399.637 198.569 C 402.927 197.232, 416.168 193.813, 429.060 190.970 C 441.952 188.127, 452.857 185.467, 453.292 185.058 C 453.728 184.650, 453.391 183.739, 452.542 183.035 C 451.694 182.331, 451 181.135, 451 180.378 C 451 178.337, 448.855 178.683, 421.972 185.061 M 265.539 193.112 C 258.172 194.186, 249 196.795, 249 197.817 C 249 198.236, 257.083 199.131, 266.963 199.806 C 276.842 200.481, 288.550 201.521, 292.980 202.117 C 297.410 202.713, 301.657 202.962, 302.418 202.670 C 304.434 201.896, 305.599 193.994, 303.859 192.892 C 302.131 191.797, 273.433 191.962, 265.539 193.112 M 475.011 193.487 C 473.261 195.595, 474.506 198, 477.346 198 C 480.844 198, 482.510 195.653, 480.463 193.606 C 478.459 191.601, 476.609 191.561, 475.011 193.487 M 490.250 192.662 C 488.287 193.454, 488.742 197.783, 490.859 198.455 C 494.982 199.764, 497.717 196.117, 494.800 193.200 C 493.550 191.950, 492.363 191.809, 490.250 192.662 M 505.040 193.452 C 503.209 195.658, 504.711 199, 507.532 199 C 510.788 199, 512.550 195.693, 510.427 193.569 C 508.468 191.610, 506.602 191.570, 505.040 193.452 M 422.512 199.611 C 414.116 201.913, 409.606 204.004, 413.050 203.997 C 419.695 203.984, 432.676 201.625, 433.750 200.235 C 436.799 196.290, 434.990 196.190, 422.512 199.611 M 119 208 C 117.763 210.311, 119.226 214, 121.380 214 C 122.101 214, 123.505 213.100, 124.500 212 C 126.247 210.070, 126.247 209.930, 124.500 208 C 123.505 206.900, 122.101 206, 121.380 206 C 120.660 206, 119.589 206.900, 119 208 M 133.452 208.053 C 131.551 210.153, 131.551 210.199, 133.454 211.590 C 135.953 213.418, 137.447 213.371, 139.070 211.416 C 140.022 210.268, 140.095 209.374, 139.335 208.166 C 137.780 205.698, 135.621 205.656, 133.452 208.053 M 105 208.500 C 104.007 209.697, 104.007 210.303, 105 211.500 C 105.685 212.325, 106.810 213, 107.500 213 C 109.415 213, 111.111 210.452, 110.410 208.627 C 109.628 206.587, 106.645 206.518, 105 208.500 M 491 231 C 488.384 233.616, 488.477 234.611, 491.526 236.609 C 493.891 238.158, 494.177 238.150, 496.026 236.477 C 498.481 234.255, 498.518 232.779, 496.171 230.655 C 493.842 228.547, 493.425 228.575, 491 231 M 508.575 230.917 C 507.191 232.446, 507.066 233.255, 507.955 234.917 C 509.184 237.212, 511.116 237.544, 514.066 235.965 C 516.561 234.629, 516.505 233.549, 513.811 231.039 C 511.117 228.529, 510.744 228.520, 508.575 230.917 M 525.152 230.885 C 522.160 232.781, 525.948 238.001, 529.364 236.691 C 531.457 235.887, 531.497 231.405, 529.418 230.607 C 527.361 229.818, 526.776 229.856, 525.152 230.885 M 540.238 231.162 C 538.299 233.101, 538.774 234.940, 541.537 236.199 C 543.631 237.153, 544.370 237.058, 545.770 235.659 C 547.076 234.353, 547.216 233.564, 546.381 232.231 C 545.027 230.071, 541.877 229.523, 540.238 231.162 M 257.500 240.687 C 250.074 241.321, 240.011 243.174, 239.499 244.001 C 238.883 244.998, 241.571 245.437, 264 248 C 273.625 249.100, 283.126 250.254, 285.114 250.565 C 287.705 250.970, 289.190 250.667, 290.364 249.493 C 292.787 247.070, 292.458 243.120, 289.750 242.120 C 287.248 241.197, 263.755 240.153, 257.500 240.687 M 301.980 247.552 C 301.400 249.077, 301.282 250.682, 301.717 251.117 C 302.520 251.920, 324.040 254.347, 340.500 255.492 C 345.450 255.836, 350.850 256.336, 352.500 256.602 C 354.638 256.948, 355.069 256.816, 354 256.143 C 352.382 255.126, 315.556 246.630, 307.767 245.478 C 303.246 244.809, 302.988 244.902, 301.980 247.552 M 502.958 272.550 C 501.898 273.828, 501.950 274.378, 503.251 275.680 C 505.354 277.783, 510 276.687, 510 274.088 C 510 270.963, 505.154 269.905, 502.958 272.550 M 465 272.931 C 461.574 275.372, 466.209 276.148, 480.893 275.592 C 494.487 275.077, 497.047 274.714, 495.810 273.477 C 494.696 272.363, 466.499 271.864, 465 272.931 M 518.500 272.890 C 511.479 274.417, 519.450 275.512, 539.500 275.774 C 560.275 276.046, 565.618 275.391, 562 273.015 C 560.346 271.930, 523.401 271.823, 518.500 272.890 M 174.247 294.250 C 174.806 295.941, 179.709 298.625, 180.604 297.729 C 181.690 296.644, 177.959 293, 175.762 293 C 174.665 293, 174.012 293.539, 174.247 294.250 M 183.459 298.067 C 182.595 299.464, 182.632 299.490, 188.773 301.911 L 194.046 303.989 192.560 301.116 C 190.554 297.236, 185.101 295.409, 183.459 298.067 M 195.493 302.011 C 194.583 303.484, 195.901 304.385, 202.788 306.995 C 209.262 309.450, 210.236 309.485, 209.823 307.250 C 209.221 303.991, 197.025 299.532, 195.493 302.011 M 213.281 308.709 C 212.536 310.653, 213.611 311.256, 225.325 315.468 C 236.441 319.464, 237.166 319.596, 236.351 317.473 C 235.444 315.109, 227.478 310.873, 220.325 308.953 C 214.648 307.429, 213.784 307.399, 213.281 308.709 M 182.461 311.579 C 194.539 318.538, 237.977 333.236, 283 345.597 C 297.727 349.640, 303.505 351.597, 301.340 351.807 C 297.119 352.216, 270.735 347.844, 248.500 343.050 C 238.600 340.915, 229.150 338.895, 227.500 338.561 C 216.369 336.308, 245.570 345.390, 264.500 350.068 C 285.858 355.347, 327.576 362.095, 369.500 367.052 C 400.979 370.774, 417 373.133, 417 374.048 C 417 374.860, 393.346 383.991, 384.961 386.417 C 376.963 388.731, 363.868 390.898, 353.475 391.629 C 341.729 392.455, 329.436 390.978, 297.653 384.924 C 273.542 380.331, 270.755 380.001, 256.153 380.008 C 236.845 380.017, 234.818 380.339, 196.500 389.499 C 144.094 402.025, 132.116 403.533, 90.890 402.789 C 76.100 402.522, 64 402.631, 64 403.030 C 64 407.073, 98.481 410.077, 122 408.084 C 141.897 406.398, 157.055 403.735, 190.500 396.051 C 207 392.260, 223.200 388.561, 226.500 387.830 C 230.550 386.933, 240.137 386.501, 256 386.501 L 279.500 386.500 302 390.895 C 322.597 394.918, 326.133 395.328, 343.805 395.752 C 372.666 396.443, 380.285 394.976, 427.622 379.612 C 462.460 368.305, 465.062 367.803, 489.500 367.668 C 511.814 367.545, 520.936 368.862, 544.246 375.571 C 550.899 377.486, 556.805 378.898, 557.371 378.710 C 560.320 377.727, 525.600 365.473, 511.500 362.521 C 498.711 359.843, 476.226 358.525, 466.513 359.884 C 456.459 361.291, 440.302 365.332, 434.511 367.889 C 430.533 369.645, 430.296 369.624, 405.903 365.384 C 367.279 358.670, 277.836 338.754, 240.199 328.488 C 229.033 325.442, 211.490 320.207, 201.215 316.854 C 177.992 309.276, 178.916 309.536, 182.461 311.579 M 81.229 323.171 C 80.553 323.847, 80 325.240, 80 326.266 C 80 327.713, 80.619 328.062, 82.750 327.816 C 84.928 327.566, 85.500 326.983, 85.500 325.014 C 85.500 322.248, 83.161 321.239, 81.229 323.171 M 93.806 324.527 C 92.196 328.060, 93.940 329.804, 97.473 328.194 C 100.209 326.948, 100.700 325.100, 98.800 323.200 C 96.900 321.300, 95.052 321.791, 93.806 324.527 M 107.989 324.021 C 106.609 326.599, 107.485 328, 110.476 328 C 113.182 328, 114.133 326.284, 112.830 323.750 C 111.624 321.407, 109.319 321.535, 107.989 324.021 M 425 336.107 C 408.404 337.983, 409.366 341, 426.559 341 L 439 341 439 338 C 439 334.582, 438.769 334.551, 425 336.107 M 451 337.721 L 451 340.727 465.250 340.237 C 473.087 339.967, 479.687 339.578, 479.917 339.373 C 481.573 337.890, 474.310 336.390, 460.750 335.415 L 451 334.714 451 337.721 M 572.545 359.105 C 567.619 360.153, 563.211 361.389, 562.748 361.852 C 562.285 362.315, 566.540 363.001, 572.203 363.376 C 581.943 364.022, 582.595 363.943, 584.250 361.919 C 586.668 358.961, 586.462 356.979, 583.750 357.100 C 582.513 357.155, 577.470 358.057, 572.545 359.105 M 280 363.060 C 283.904 364.468, 320.717 371.008, 324.297 370.930 C 326.059 370.891, 328.400 370.505, 329.500 370.071 C 331.276 369.371, 331.165 369.213, 328.500 368.659 C 321.143 367.130, 281.974 361.923, 279 362.079 C 278.175 362.122, 278.625 362.564, 280 363.060 M 177.500 374.021 C 149.038 379.840, 135.473 381.158, 107.713 380.803 C 94.724 380.636, 84.412 380.809, 84.798 381.186 C 85.184 381.563, 89.325 382.875, 94 384.101 C 109.448 388.152, 136.492 386.761, 164.532 380.472 C 176.049 377.889, 198 371.325, 198 370.465 C 198 369.814, 198.535 369.721, 177.500 374.021 M 477.500 385.024 C 462.807 387.288, 449.379 390.596, 431.132 396.449 C 420.334 399.912, 406.100 403.983, 399.500 405.496 C 375.732 410.943, 375.632 411.007, 391.500 410.598 C 406.629 410.208, 406.994 410.138, 441.759 400.975 C 473.992 392.479, 485.768 390.597, 506.500 390.628 C 521.282 390.649, 537.951 392.179, 550 394.620 C 554.508 395.533, 549.720 393.157, 542.653 390.975 C 528.317 386.547, 517.856 384.944, 500.500 384.518 C 491.150 384.288, 480.800 384.516, 477.500 385.024 M 239.836 400.968 C 228.367 402.431, 201.295 408.629, 202.242 409.575 C 202.424 409.758, 207.957 409.267, 214.537 408.485 C 232.897 406.302, 284.501 406.540, 297.273 408.866 C 302.649 409.845, 306.699 410.320, 306.273 409.920 C 305.046 408.767, 290.181 404.325, 281.659 402.565 C 272.421 400.656, 249.224 399.771, 239.836 400.968 M 489 407.490 C 472.039 410.707, 472.793 410.812, 512.500 410.777 L 551.500 410.743 544 408.767 C 533.965 406.123, 500.325 405.342, 489 407.490" stroke="none" fill="#aabaaa" fill-rule="evenodd"/><path d="M 286.621 12.560 C 211.864 21.046, 141.180 59.845, 90.886 120.001 C 72.972 141.428, 61.538 159.440, 49.159 185.732 C 36.454 212.717, 28.429 238.981, 24.482 266.500 C 21.877 284.663, 21.779 286.778, 22.266 314.500 C 22.805 345.258, 23.402 350.524, 28.948 373.500 C 34.766 397.603, 40.932 414.483, 44.359 415.686 C 45.537 416.099, 58.875 416.308, 74 416.150 C 98.601 415.892, 104.135 416.155, 126.500 418.639 C 148.275 421.058, 155.370 421.416, 181.500 421.416 C 207.365 421.416, 214.907 421.043, 236.213 418.708 C 270.022 415.003, 292.978 415.003, 326.787 418.708 C 348.093 421.043, 355.635 421.416, 381.500 421.416 C 407.365 421.416, 414.907 421.043, 436.213 418.708 C 469.319 415.080, 493.135 415.037, 526.500 418.543 C 539.700 419.930, 556.820 421.341, 564.544 421.677 C 591.313 422.843, 592.885 421.810, 600.796 397.851 C 605.857 382.526, 609.217 368.278, 612.671 347.500 C 615.228 332.119, 615.233 285.243, 612.680 267 C 606.795 224.959, 590.446 182.605, 565.837 145.649 C 545.352 114.886, 517.310 86.567, 484.065 63.067 C 449.005 38.284, 400.996 19.761, 355.500 13.464 C 338.773 11.148, 303.172 10.681, 286.621 12.560 M 292 36.625 C 272.016 39.075, 253.883 43.065, 237 48.729 C 163.290 73.455, 100.163 129.731, 69.371 198.168 C 56.737 226.247, 48.086 259.009, 46.047 286.500 C 44.896 302.008, 44.682 326.713, 45.630 334.602 L 46.243 339.704 58.372 340.338 C 77.455 341.336, 95.663 345.046, 110.600 350.980 C 119.268 354.423, 122.762 356.571, 121.594 357.740 C 120.268 359.067, 105.004 359.222, 90 358.062 C 82.025 357.445, 69.921 356.657, 63.102 356.311 L 50.703 355.682 51.422 358.591 C 51.818 360.191, 52.449 361.816, 52.824 362.203 C 54.249 363.671, 95.213 365.239, 118 364.697 C 144.477 364.068, 175.617 360.083, 179.703 356.800 C 181.321 355.500, 178.539 348.450, 171.437 335.847 C 160.723 316.836, 153.957 309.496, 118.797 278.740 C 91.734 255.067, 82.362 246.305, 83.203 245.463 C 84.370 244.296, 94.433 250.237, 126.188 270.838 C 134.817 276.435, 142.524 281.264, 143.315 281.567 C 144.261 281.931, 144.973 281.244, 145.396 279.560 C 146.435 275.419, 151.217 276.234, 171.868 284.071 C 182.116 287.959, 200.543 294.772, 212.819 299.209 L 235.137 307.277 241.319 313.644 C 246.998 319.494, 248.230 320.246, 256.500 322.917 C 261.450 324.516, 267.180 326.137, 269.234 326.520 C 272.688 327.164, 273.050 327.003, 274.075 324.358 C 274.684 322.786, 276.556 315.506, 278.235 308.179 C 280.840 296.810, 281.083 294.661, 279.894 293.507 C 275.864 289.600, 230.244 288.940, 217.782 292.609 C 216.497 292.987, 215.505 291.903, 213.847 288.307 C 210.778 281.651, 196.346 267.412, 187.206 262.022 C 175.636 255.198, 168.110 252.872, 157.523 252.846 C 150.381 252.830, 147.492 253.278, 143.667 254.996 C 141.009 256.190, 138.660 256.994, 138.448 256.782 C 137.929 256.262, 153.232 236.610, 162.620 225.740 C 179.574 206.110, 215.620 175.562, 236.882 162.804 C 256.125 151.258, 280.498 121.593, 284.543 104.794 C 285.298 101.660, 284.785 101.464, 273.555 100.583 C 269.364 100.255, 266.017 99.446, 265.115 98.543 C 263.244 96.673, 263.855 96.054, 268.671 94.936 C 274.732 93.530, 286.380 93.843, 309.682 96.040 C 321.583 97.162, 331.644 97.724, 332.040 97.290 C 332.436 96.855, 334.500 89.862, 336.625 81.750 L 340.489 67 343.638 67 C 345.595 67, 347.017 67.602, 347.397 68.593 C 348.088 70.392, 346.930 78.400, 344.139 91.142 L 342.245 99.784 345.873 100.339 C 347.868 100.644, 356.250 101.649, 364.500 102.571 C 381.498 104.472, 384.300 105.224, 383.801 107.753 C 383.483 109.364, 381.554 109.487, 359.010 109.338 C 344.772 109.244, 335.211 109.539, 336.114 110.044 C 338.618 111.445, 355.013 116, 357.553 116 C 358.834 116, 360.083 116.338, 360.330 116.750 C 360.576 117.162, 360.326 120.425, 359.775 124 C 358.816 130.219, 359.771 142.635, 361.569 147.320 C 362.368 149.401, 363.070 149.520, 343.642 144.282 C 336.571 142.375, 330.443 141.194, 330.025 141.658 C 329.106 142.677, 326 151.869, 326 153.570 C 326 155.429, 328.633 155.784, 355 157.478 C 384.282 159.358, 384 159.310, 384 162.447 C 384 164.621, 383.456 164.924, 378.430 165.552 C 373.593 166.156, 352.333 165.232, 329.500 163.425 C 324.931 163.064, 323.021 163.199, 324 163.814 C 326.630 165.467, 348.149 170.166, 355.709 170.737 L 363 171.289 363.008 177.894 C 363.018 187.323, 364.719 196.654, 367.567 202.902 C 368.921 205.874, 369.910 208.415, 369.764 208.550 C 369.619 208.685, 366.800 207.940, 363.500 206.895 C 360.200 205.850, 348.309 202.682, 337.076 199.854 L 316.651 194.713 314.826 196.967 C 313.015 199.203, 312.270 205, 313.793 205 C 314.230 205, 321.092 205.894, 329.043 206.988 C 336.995 208.081, 352.238 209.867, 362.918 210.956 C 373.599 212.046, 382.771 213.371, 383.301 213.901 C 383.832 214.432, 383.969 215.638, 383.607 216.581 C 383.022 218.107, 381.841 218.225, 372.973 217.644 C 367.486 217.284, 353.660 215.898, 342.249 214.564 C 330.837 213.230, 318.575 211.884, 315 211.574 L 308.500 211.008 312.500 212.566 C 316.882 214.272, 350.023 222.539, 356.614 223.569 L 360.728 224.212 360.637 235.856 C 360.553 246.595, 361.585 253.309, 363.863 256.839 C 364.346 257.586, 368.469 258.730, 373.200 259.428 C 383.117 260.893, 384 261.313, 384 264.559 C 384 266.892, 383.717 267, 377.623 267 C 374.115 267, 354.541 265.200, 334.124 263 C 313.707 260.800, 296.214 259.041, 295.251 259.091 C 289.839 259.373, 326.837 268.738, 339.789 270.365 L 349.079 271.532 349.452 284.016 C 349.668 291.247, 350.488 298.814, 351.400 302 C 352.267 305.025, 352.982 307.795, 352.988 308.156 C 352.995 308.517, 347.262 307.260, 340.250 305.362 C 322.908 300.668, 298.098 295.017, 294.797 295.007 C 291.626 294.999, 291.419 295.572, 287.412 315.441 C 285.004 327.381, 284.930 328.475, 286.453 329.589 C 288.165 330.841, 294.908 332.426, 295.596 331.737 C 295.811 331.522, 296.962 325.081, 298.154 317.423 C 299.345 309.765, 300.481 303.305, 300.677 303.067 C 300.873 302.828, 301.484 303.084, 302.035 303.635 C 302.704 304.304, 302.490 309.194, 301.391 318.357 C 300.485 325.904, 299.988 332.321, 300.286 332.619 C 301.331 333.664, 316.092 337.061, 317.041 336.475 C 317.579 336.142, 318 329.784, 318 322 C 318 308.112, 319.176 302.974, 320.367 311.663 C 320.715 314.202, 321.026 319.254, 321.058 322.890 C 321.089 326.525, 321.434 331.299, 321.824 333.499 C 322.522 337.434, 322.641 337.528, 329.253 339.430 C 332.948 340.492, 336.233 341.100, 336.552 340.781 C 336.871 340.462, 336.652 335.899, 336.066 330.640 C 335.480 325.381, 335.014 318.474, 335.032 315.289 C 335.059 310.378, 335.257 309.755, 336.341 311.180 C 337.044 312.104, 338.170 318.745, 338.843 325.937 C 339.517 333.129, 340.317 339.662, 340.621 340.454 C 340.927 341.253, 343.695 342.400, 346.837 343.031 C 349.952 343.656, 353.579 344.420, 354.898 344.729 C 357.266 345.284, 357.287 345.222, 356.570 339.896 C 353.659 318.254, 353.278 314.406, 353.975 313.669 C 354.897 312.695, 356.345 318.604, 358.589 332.500 C 359.477 338, 360.797 343.441, 361.521 344.592 C 362.579 346.271, 365.466 347.207, 376.169 349.342 C 383.501 350.805, 389.837 352.001, 390.250 352.001 C 390.663 352, 391 320.370, 391 281.710 C 391 221.225, 390.782 210.589, 389.439 205.460 C 388.581 202.182, 387.535 196.676, 387.115 193.225 C 386.380 187.184, 386.438 186.932, 388.676 186.475 C 389.954 186.214, 392.125 185.766, 393.500 185.481 L 396 184.962 396.117 152.231 C 396.182 134.229, 396.520 115, 396.867 109.500 C 397.447 100.330, 397.675 99.475, 399.607 99.199 C 401.421 98.940, 401.804 99.550, 402.357 103.589 C 402.711 106.168, 403 112.941, 403 118.640 L 403 129 413.250 129.017 C 426.758 129.040, 433.527 130.594, 452.593 138.050 C 476.660 147.461, 479.917 148.219, 494.612 147.830 L 507.070 147.500 503.785 150.282 C 497.180 155.875, 491.081 158.310, 482.500 158.779 C 475.046 159.186, 473.568 158.901, 460.840 154.601 C 453.327 152.063, 445.199 149.715, 442.779 149.383 C 436.714 148.552, 428.575 150.399, 414.750 155.744 L 403 160.287 403 171.175 C 403 179.060, 403.351 182.197, 404.271 182.551 C 404.971 182.819, 416.462 180.780, 429.808 178.019 C 443.154 175.259, 454.902 173, 455.914 173 C 457.508 173, 457.692 173.637, 457.292 177.750 C 456.395 186.971, 455.309 188.888, 449.542 191.439 C 446.646 192.720, 443.539 194.820, 442.638 196.106 C 439.321 200.842, 441.556 213.537, 446.710 219.232 C 447.590 220.204, 448.060 221, 447.754 221 C 444.382 221, 404.930 229.500, 403.250 230.588 C 401.456 231.751, 401 232.975, 401 236.631 C 401 241.135, 401.049 241.204, 403.750 240.524 C 405.262 240.142, 416.348 237.848, 428.385 235.426 C 440.422 233.003, 450.884 230.511, 451.635 229.888 C 452.386 229.265, 453 228, 453 227.078 C 453 224.913, 454.932 223, 457.117 223 C 458.366 223, 459.124 224.353, 459.899 227.965 C 461.084 233.488, 460.627 235.697, 458.158 236.388 C 457.246 236.643, 447.725 239.022, 437 241.676 L 417.500 246.500 426.250 246.789 L 435 247.078 434.985 250.289 C 434.976 252.055, 434.639 253.988, 434.235 254.585 C 433.831 255.182, 429.998 256.261, 425.718 256.982 C 421.438 257.704, 417.699 258.678, 417.409 259.147 C 417.119 259.616, 421.658 260, 427.496 260 L 438.110 260 437.805 264.727 C 437.465 269.994, 438.523 269.453, 424.658 271.452 C 417.446 272.492, 419.909 273.438, 431.288 274 L 441.420 274.500 442.703 278.945 C 444.267 284.364, 444.054 284.539, 434.779 285.453 C 430.938 285.832, 427.129 286.397, 426.314 286.710 C 423.219 287.898, 427.521 288.969, 435.500 288.998 C 439.900 289.014, 444.476 289.289, 445.668 289.609 C 447.918 290.212, 450.630 295.172, 449.611 296.821 C 449.291 297.339, 445.647 298.079, 441.514 298.466 C 437.381 298.854, 434 299.582, 434 300.085 C 434 300.588, 438.199 301, 443.330 301 L 452.661 301 456.039 305.750 C 457.898 308.363, 461.867 313.088, 464.861 316.250 L 470.304 322 445.843 322 C 424.249 322, 420.391 322.248, 412.940 324.118 C 408.298 325.283, 403.712 326.649, 402.750 327.153 C 401.067 328.035, 400.211 333.022, 401.750 332.979 C 402.163 332.968, 407.900 332.058, 414.500 330.957 C 439.002 326.870, 461.328 327.326, 486.297 332.425 C 498.376 334.891, 501.962 336.438, 500.042 338.358 C 499.469 338.931, 499 342.198, 499 345.617 L 499 351.834 503.750 352.850 C 521.294 356.600, 520.673 356.604, 533.206 352.656 C 548.787 347.749, 563.316 344.328, 576.335 342.500 C 582.294 341.664, 587.972 340.550, 588.952 340.026 C 592.134 338.323, 593.700 315.026, 592.048 293.943 C 587.573 236.791, 567.865 186.041, 533.045 142 C 522.911 129.182, 500.999 107.279, 487.542 96.516 C 455.779 71.109, 419.465 53.081, 381 43.621 C 358.143 38, 348.433 36.858, 320.500 36.508 C 306.750 36.336, 293.925 36.389, 292 36.625 M 211.639 90.694 C 210.686 91.647, 210.867 94, 211.893 94 C 213.120 94, 214.105 91.183, 213.096 90.559 C 212.647 90.282, 211.991 90.342, 211.639 90.694 M 445.631 111.855 C 443.608 114.090, 444.354 116.598, 447.267 117.360 C 451.332 118.422, 453.433 114.576, 450.429 111.571 C 448.407 109.550, 447.678 109.593, 445.631 111.855 M 460.441 111.441 C 458.891 112.593, 458.722 113.247, 459.602 114.691 C 460.968 116.933, 464.980 117.638, 466.122 115.837 C 467.313 113.958, 467.216 113.358, 465.429 111.571 C 463.493 109.635, 462.894 109.620, 460.441 111.441 M 474.517 111.981 C 473.022 113.633, 472.940 114.223, 474.026 115.532 C 475.811 117.682, 480.381 117.035, 480.850 114.566 C 481.052 113.502, 480.408 112.040, 479.418 111.316 C 477.050 109.585, 476.635 109.641, 474.517 111.981 M 176.571 118.571 C 174.712 120.431, 174.696 120.564, 176.035 123.066 C 177.362 125.544, 179.218 125.522, 181.500 123 C 183.247 121.070, 183.247 120.930, 181.500 119 C 179.318 116.589, 178.615 116.528, 176.571 118.571 M 204.631 118.855 C 202.823 120.853, 203.277 123.509, 205.577 124.391 C 207.512 125.134, 209.719 124.176, 210.447 122.278 C 211.010 120.810, 208.522 117, 207 117 C 206.620 117, 205.554 117.835, 204.631 118.855 M 190.011 119.487 C 188.261 121.595, 189.506 124, 192.346 124 C 195.658 124, 197.674 121.517, 196 119.500 C 194.409 117.583, 191.596 117.577, 190.011 119.487 M 287.500 137.698 C 278.161 138.936, 264.399 144.761, 260.222 149.244 L 257.944 151.688 278.722 152.430 C 290.150 152.838, 303.100 153.510, 307.500 153.923 C 311.900 154.336, 315.631 154.579, 315.792 154.462 C 316.400 154.020, 320.145 139.812, 319.756 139.422 C 317.883 137.549, 297.026 136.434, 287.500 137.698 M 186.669 157.814 C 184.724 159.962, 186.102 162, 189.500 162 C 192.898 162, 194.276 159.962, 192.331 157.814 C 191.429 156.816, 190.155 156, 189.500 156 C 188.845 156, 187.571 156.816, 186.669 157.814 M 203.750 157.080 C 199.789 159.387, 203.929 164.179, 208 162 C 210.410 160.710, 210.512 159.655, 208.429 157.571 C 206.607 155.750, 206.121 155.699, 203.750 157.080 M 129.441 158.429 C 127.524 159.839, 127.525 159.867, 129.500 160.679 C 130.600 161.130, 137.125 161.500, 144 161.500 C 150.875 161.500, 157.400 161.130, 158.500 160.679 C 160.475 159.867, 160.476 159.839, 158.559 158.429 C 157.118 157.369, 153.363 157, 144 157 C 134.637 157, 130.882 157.369, 129.441 158.429 M 165.695 157.700 C 162.706 158.475, 164.388 160.442, 168.858 161.398 C 171.794 162.026, 173.870 161.924, 175.768 161.060 C 178.387 159.867, 178.414 159.776, 176.549 158.412 C 174.696 157.057, 169.492 156.716, 165.695 157.700 M 250.484 161.823 C 240.071 168.257, 223.798 193.550, 216.981 213.897 C 210.639 232.828, 211.006 267.370, 217.688 280.351 L 219.156 283.202 221.686 280.851 C 225.689 277.132, 232.630 266.961, 235.958 259.938 C 239.562 252.332, 239.148 251.624, 230.459 250.538 C 224.034 249.735, 221.493 247.816, 223.037 244.931 C 223.605 243.869, 224.903 243, 225.921 243 C 229.116 243, 239.527 230.761, 243.968 221.782 C 248.441 212.742, 249.356 208.261, 247 206.941 C 246.175 206.479, 243.363 205.826, 240.750 205.489 C 238.087 205.146, 236.002 204.355, 236.003 203.689 C 236.005 203.035, 238.744 199.350, 242.090 195.500 C 245.435 191.650, 249.263 186.652, 250.597 184.394 C 253.423 179.608, 257.708 167.783, 258.176 163.481 C 258.453 160.937, 258.134 160.460, 256 160.229 C 254.625 160.081, 252.143 160.798, 250.484 161.823 M 421.972 185.061 C 390.591 192.506, 392 191.946, 392 196.975 C 392 199.189, 392.372 201, 392.828 201 C 393.283 201, 396.347 199.906, 399.637 198.569 C 402.927 197.232, 416.168 193.813, 429.060 190.970 C 441.952 188.127, 452.857 185.467, 453.292 185.058 C 453.728 184.650, 453.391 183.739, 452.542 183.035 C 451.694 182.331, 451 181.135, 451 180.378 C 451 178.337, 448.855 178.683, 421.972 185.061 M 265.539 193.112 C 258.172 194.186, 249 196.795, 249 197.817 C 249 198.236, 257.083 199.131, 266.963 199.806 C 276.842 200.481, 288.550 201.521, 292.980 202.117 C 297.410 202.713, 301.657 202.962, 302.418 202.670 C 304.434 201.896, 305.599 193.994, 303.859 192.892 C 302.131 191.797, 273.433 191.962, 265.539 193.112 M 475.011 193.487 C 473.261 195.595, 474.506 198, 477.346 198 C 480.844 198, 482.510 195.653, 480.463 193.606 C 478.459 191.601, 476.609 191.561, 475.011 193.487 M 490.250 192.662 C 488.287 193.454, 488.742 197.783, 490.859 198.455 C 494.982 199.764, 497.717 196.117, 494.800 193.200 C 493.550 191.950, 492.363 191.809, 490.250 192.662 M 505.040 193.452 C 503.209 195.658, 504.711 199, 507.532 199 C 510.788 199, 512.550 195.693, 510.427 193.569 C 508.468 191.610, 506.602 191.570, 505.040 193.452 M 422.512 199.611 C 414.116 201.913, 409.606 204.004, 413.050 203.997 C 419.695 203.984, 432.676 201.625, 433.750 200.235 C 436.799 196.290, 434.990 196.190, 422.512 199.611 M 119 208 C 117.763 210.311, 119.226 214, 121.380 214 C 122.101 214, 123.505 213.100, 124.500 212 C 126.247 210.070, 126.247 209.930, 124.500 208 C 123.505 206.900, 122.101 206, 121.380 206 C 120.660 206, 119.589 206.900, 119 208 M 133.452 208.053 C 131.551 210.153, 131.551 210.199, 133.454 211.590 C 135.953 213.418, 137.447 213.371, 139.070 211.416 C 140.022 210.268, 140.095 209.374, 139.335 208.166 C 137.780 205.698, 135.621 205.656, 133.452 208.053 M 105 208.500 C 104.007 209.697, 104.007 210.303, 105 211.500 C 105.685 212.325, 106.810 213, 107.500 213 C 109.415 213, 111.111 210.452, 110.410 208.627 C 109.628 206.587, 106.645 206.518, 105 208.500 M 491 231 C 488.384 233.616, 488.477 234.611, 491.526 236.609 C 493.891 238.158, 494.177 238.150, 496.026 236.477 C 498.481 234.255, 498.518 232.779, 496.171 230.655 C 493.842 228.547, 493.425 228.575, 491 231 M 508.575 230.917 C 507.191 232.446, 507.066 233.255, 507.955 234.917 C 509.184 237.212, 511.116 237.544, 514.066 235.965 C 516.561 234.629, 516.505 233.549, 513.811 231.039 C 511.117 228.529, 510.744 228.520, 508.575 230.917 M 525.152 230.885 C 522.160 232.781, 525.948 238.001, 529.364 236.691 C 531.457 235.887, 531.497 231.405, 529.418 230.607 C 527.361 229.818, 526.776 229.856, 525.152 230.885 M 540.238 231.162 C 538.299 233.101, 538.774 234.940, 541.537 236.199 C 543.631 237.153, 544.370 237.058, 545.770 235.659 C 547.076 234.353, 547.216 233.564, 546.381 232.231 C 545.027 230.071, 541.877 229.523, 540.238 231.162 M 257.500 240.687 C 250.074 241.321, 240.011 243.174, 239.499 244.001 C 238.883 244.998, 241.571 245.437, 264 248 C 273.625 249.100, 283.126 250.254, 285.114 250.565 C 287.705 250.970, 289.190 250.667, 290.364 249.493 C 292.787 247.070, 292.458 243.120, 289.750 242.120 C 287.248 241.197, 263.755 240.153, 257.500 240.687 M 301.980 247.552 C 301.400 249.077, 301.282 250.682, 301.717 251.117 C 302.520 251.920, 324.040 254.347, 340.500 255.492 C 345.450 255.836, 350.850 256.336, 352.500 256.602 C 354.638 256.948, 355.069 256.816, 354 256.143 C 352.382 255.126, 315.556 246.630, 307.767 245.478 C 303.246 244.809, 302.988 244.902, 301.980 247.552 M 502.958 272.550 C 501.898 273.828, 501.950 274.378, 503.251 275.680 C 505.354 277.783, 510 276.687, 510 274.088 C 510 270.963, 505.154 269.905, 502.958 272.550 M 465 272.931 C 461.574 275.372, 466.209 276.148, 480.893 275.592 C 494.487 275.077, 497.047 274.714, 495.810 273.477 C 494.696 272.363, 466.499 271.864, 465 272.931 M 518.500 272.890 C 511.479 274.417, 519.450 275.512, 539.500 275.774 C 560.275 276.046, 565.618 275.391, 562 273.015 C 560.346 271.930, 523.401 271.823, 518.500 272.890 M 174.247 294.250 C 174.806 295.941, 179.709 298.625, 180.604 297.729 C 181.690 296.644, 177.959 293, 175.762 293 C 174.665 293, 174.012 293.539, 174.247 294.250 M 183.459 298.067 C 182.595 299.464, 182.632 299.490, 188.773 301.911 L 194.046 303.989 192.560 301.116 C 190.554 297.236, 185.101 295.409, 183.459 298.067 M 195.493 302.011 C 194.583 303.484, 195.901 304.385, 202.788 306.995 C 209.262 309.450, 210.236 309.485, 209.823 307.250 C 209.221 303.991, 197.025 299.532, 195.493 302.011 M 213.281 308.709 C 212.536 310.653, 213.611 311.256, 225.325 315.468 C 236.441 319.464, 237.166 319.596, 236.351 317.473 C 235.444 315.109, 227.478 310.873, 220.325 308.953 C 214.648 307.429, 213.784 307.399, 213.281 308.709 M 182.461 311.579 C 194.539 318.538, 237.977 333.236, 283 345.597 C 297.727 349.640, 303.505 351.597, 301.340 351.807 C 297.119 352.216, 270.735 347.844, 248.500 343.050 C 238.600 340.915, 229.150 338.895, 227.500 338.561 C 216.369 336.308, 245.570 345.390, 264.500 350.068 C 285.858 355.347, 327.576 362.095, 369.500 367.052 C 400.979 370.774, 417 373.133, 417 374.048 C 417 374.860, 393.346 383.991, 384.961 386.417 C 376.963 388.731, 363.868 390.898, 353.475 391.629 C 341.729 392.455, 329.436 390.978, 297.653 384.924 C 273.542 380.331, 270.755 380.001, 256.153 380.008 C 236.845 380.017, 234.818 380.339, 196.500 389.499 C 144.094 402.025, 132.116 403.533, 90.890 402.789 C 76.100 402.522, 64 402.631, 64 403.030 C 64 407.073, 98.481 410.077, 122 408.084 C 141.897 406.398, 157.055 403.735, 190.500 396.051 C 207 392.260, 223.200 388.561, 226.500 387.830 C 230.550 386.933, 240.137 386.501, 256 386.501 L 279.500 386.500 302 390.895 C 322.597 394.918, 326.133 395.328, 343.805 395.752 C 372.666 396.443, 380.285 394.976, 427.622 379.612 C 462.460 368.305, 465.062 367.803, 489.500 367.668 C 511.814 367.545, 520.936 368.862, 544.246 375.571 C 550.899 377.486, 556.805 378.898, 557.371 378.710 C 560.320 377.727, 525.600 365.473, 511.500 362.521 C 498.711 359.843, 476.226 358.525, 466.513 359.884 C 456.459 361.291, 440.302 365.332, 434.511 367.889 C 430.533 369.645, 430.296 369.624, 405.903 365.384 C 367.279 358.670, 277.836 338.754, 240.199 328.488 C 229.033 325.442, 211.490 320.207, 201.215 316.854 C 177.992 309.276, 178.916 309.536, 182.461 311.579 M 81.229 323.171 C 80.553 323.847, 80 325.240, 80 326.266 C 80 327.713, 80.619 328.062, 82.750 327.816 C 84.928 327.566, 85.500 326.983, 85.500 325.014 C 85.500 322.248, 83.161 321.239, 81.229 323.171 M 93.806 324.527 C 92.196 328.060, 93.940 329.804, 97.473 328.194 C 100.209 326.948, 100.700 325.100, 98.800 323.200 C 96.900 321.300, 95.052 321.791, 93.806 324.527 M 107.989 324.021 C 106.609 326.599, 107.485 328, 110.476 328 C 113.182 328, 114.133 326.284, 112.830 323.750 C 111.624 321.407, 109.319 321.535, 107.989 324.021 M 425 336.107 C 408.404 337.983, 409.366 341, 426.559 341 L 439 341 439 338 C 439 334.582, 438.769 334.551, 425 336.107 M 451 337.721 L 451 340.727 465.250 340.237 C 473.087 339.967, 479.687 339.578, 479.917 339.373 C 481.573 337.890, 474.310 336.390, 460.750 335.415 L 451 334.714 451 337.721 M 572.545 359.105 C 567.619 360.153, 563.211 361.389, 562.748 361.852 C 562.285 362.315, 566.540 363.001, 572.203 363.376 C 581.943 364.022, 582.595 363.943, 584.250 361.919 C 586.668 358.961, 586.462 356.979, 583.750 357.100 C 582.513 357.155, 577.470 358.057, 572.545 359.105 M 280 363.060 C 283.904 364.468, 320.717 371.008, 324.297 370.930 C 326.059 370.891, 328.400 370.505, 329.500 370.071 C 331.276 369.371, 331.165 369.213, 328.500 368.659 C 321.143 367.130, 281.974 361.923, 279 362.079 C 278.175 362.122, 278.625 362.564, 280 363.060 M 177.500 374.021 C 149.038 379.840, 135.473 381.158, 107.713 380.803 C 94.724 380.636, 84.412 380.809, 84.798 381.186 C 85.184 381.563, 89.325 382.875, 94 384.101 C 109.448 388.152, 136.492 386.761, 164.532 380.472 C 176.049 377.889, 198 371.325, 198 370.465 C 198 369.814, 198.535 369.721, 177.500 374.021 M 477.500 385.024 C 462.807 387.288, 449.379 390.596, 431.132 396.449 C 420.334 399.912, 406.100 403.983, 399.500 405.496 C 375.732 410.943, 375.632 411.007, 391.500 410.598 C 406.629 410.208, 406.994 410.138, 441.759 400.975 C 473.992 392.479, 485.768 390.597, 506.500 390.628 C 521.282 390.649, 537.951 392.179, 550 394.620 C 554.508 395.533, 549.720 393.157, 542.653 390.975 C 528.317 386.547, 517.856 384.944, 500.500 384.518 C 491.150 384.288, 480.800 384.516, 477.500 385.024 M 239.836 400.968 C 228.367 402.431, 201.295 408.629, 202.242 409.575 C 202.424 409.758, 207.957 409.267, 214.537 408.485 C 232.897 406.302, 284.501 406.540, 297.273 408.866 C 302.649 409.845, 306.699 410.320, 306.273 409.920 C 305.046 408.767, 290.181 404.325, 281.659 402.565 C 272.421 400.656, 249.224 399.771, 239.836 400.968 M 489 407.490 C 472.039 410.707, 472.793 410.812, 512.500 410.777 L 551.500 410.743 544 408.767 C 533.965 406.123, 500.325 405.342, 489 407.490" stroke="none" fill="#050d14" fill-rule="evenodd"/></svg>